M48
; DRILL file {KiCad 5.1.7} date Tue Nov 17 16:45:02 2020
; FORMAT={-:-/ absolute / inch / decimal}
; #@! TF.CreationDate,2020-11-17T16:45:02+01:00
; #@! TF.GenerationSoftware,Kicad,Pcbnew,5.1.7
; #@! TF.FileFunction,Plated,1,2,PTH
FMAT,2
INCH
T1C0.0157
T2C0.0402
T3C0.0433
%
G90
G05
T1
X3.0Y-3.249
X3.0Y-3.299
X3.15Y-3.299
X3.425Y-3.224
X3.45Y-3.474
X4.425Y-3.224
T2
X3.7411Y-3.8317
X3.8593Y-3.8317
X3.9774Y-3.8317
X4.0955Y-3.8317
X4.2136Y-3.8317
X2.7844Y-3.8317
X2.9026Y-3.8317
X3.0207Y-3.8317
X3.3219Y-3.8317
X3.44Y-3.8317
X4.5148Y-3.8317
X4.6329Y-3.8317
X4.751Y-3.8317
X4.8691Y-3.8317
X4.9872Y-3.8317
T3
X4.525Y-3.274
X4.625Y-3.274
X4.725Y-3.274
X3.875Y-3.624
X3.975Y-3.624
X4.075Y-3.624
X3.875Y-3.274
X3.975Y-3.274
X4.075Y-3.274
X4.525Y-3.624
X4.625Y-3.624
X4.725Y-3.624
T0
M30
