%TF.GenerationSoftware,KiCad,Pcbnew,5.1.7*%
%TF.CreationDate,2020-11-17T16:44:46+01:00*%
%TF.ProjectId,pca9632_led_controller,70636139-3633-4325-9f6c-65645f636f6e,rev?*%
%TF.SameCoordinates,Original*%
%TF.FileFunction,Copper,L2,Bot*%
%TF.FilePolarity,Positive*%
%FSLAX46Y46*%
G04 Gerber Fmt 4.6, Leading zero omitted, Abs format (unit mm)*
G04 Created by KiCad (PCBNEW 5.1.7) date 2020-11-17 16:44:46*
%MOMM*%
%LPD*%
G01*
G04 APERTURE LIST*
%TA.AperFunction,ComponentPad*%
%ADD10O,1.905000X2.000000*%
%TD*%
%TA.AperFunction,ComponentPad*%
%ADD11R,1.905000X2.000000*%
%TD*%
%TA.AperFunction,ComponentPad*%
%ADD12O,1.500000X2.020000*%
%TD*%
%TA.AperFunction,ViaPad*%
%ADD13C,0.800000*%
%TD*%
%TA.AperFunction,Conductor*%
%ADD14C,0.250000*%
%TD*%
%TA.AperFunction,Conductor*%
%ADD15C,1.000000*%
%TD*%
%TA.AperFunction,Conductor*%
%ADD16C,0.254000*%
%TD*%
%TA.AperFunction,Conductor*%
%ADD17C,0.100000*%
%TD*%
G04 APERTURE END LIST*
D10*
%TO.P,Q4,3*%
%TO.N,GND*%
X120015000Y-92050000D03*
%TO.P,Q4,2*%
%TO.N,Net-(J3-Pad5)*%
X117475000Y-92050000D03*
D11*
%TO.P,Q4,1*%
%TO.N,Net-(Q4-Pad1)*%
X114935000Y-92050000D03*
%TD*%
D10*
%TO.P,Q3,3*%
%TO.N,GND*%
X120015000Y-83160000D03*
%TO.P,Q3,2*%
%TO.N,Net-(J3-Pad4)*%
X117475000Y-83160000D03*
D11*
%TO.P,Q3,1*%
%TO.N,Net-(Q3-Pad1)*%
X114935000Y-83160000D03*
%TD*%
D10*
%TO.P,Q2,3*%
%TO.N,GND*%
X103505000Y-83160000D03*
%TO.P,Q2,2*%
%TO.N,Net-(J3-Pad3)*%
X100965000Y-83160000D03*
D11*
%TO.P,Q2,1*%
%TO.N,Net-(Q2-Pad1)*%
X98425000Y-83160000D03*
%TD*%
D10*
%TO.P,Q1,3*%
%TO.N,GND*%
X103505000Y-92050000D03*
%TO.P,Q1,2*%
%TO.N,Net-(J3-Pad2)*%
X100965000Y-92050000D03*
D11*
%TO.P,Q1,1*%
%TO.N,Net-(Q1-Pad1)*%
X98425000Y-92050000D03*
%TD*%
D12*
%TO.P,J4,5*%
%TO.N,Net-(J3-Pad5)*%
X114675000Y-97325000D03*
%TO.P,J4,4*%
%TO.N,Net-(J3-Pad4)*%
X117675000Y-97325000D03*
%TO.P,J4,3*%
%TO.N,Net-(J3-Pad3)*%
X120675000Y-97325000D03*
%TO.P,J4,2*%
%TO.N,Net-(J3-Pad2)*%
X123675000Y-97325000D03*
%TO.P,J4,1*%
%TO.N,VDD*%
%TA.AperFunction,ComponentPad*%
G36*
G01*
X127425000Y-96565000D02*
X127425000Y-98085000D01*
G75*
G02*
X127175000Y-98335000I-250000J0D01*
G01*
X126175000Y-98335000D01*
G75*
G02*
X125925000Y-98085000I0J250000D01*
G01*
X125925000Y-96565000D01*
G75*
G02*
X126175000Y-96315000I250000J0D01*
G01*
X127175000Y-96315000D01*
G75*
G02*
X127425000Y-96565000I0J-250000D01*
G01*
G37*
%TD.AperFunction*%
%TD*%
%TO.P,J3,5*%
%TO.N,Net-(J3-Pad5)*%
X95025000Y-97325000D03*
%TO.P,J3,4*%
%TO.N,Net-(J3-Pad4)*%
X98025000Y-97325000D03*
%TO.P,J3,3*%
%TO.N,Net-(J3-Pad3)*%
X101025000Y-97325000D03*
%TO.P,J3,2*%
%TO.N,Net-(J3-Pad2)*%
X104025000Y-97325000D03*
%TO.P,J3,1*%
%TO.N,VDD*%
%TA.AperFunction,ComponentPad*%
G36*
G01*
X107775000Y-96565000D02*
X107775000Y-98085000D01*
G75*
G02*
X107525000Y-98335000I-250000J0D01*
G01*
X106525000Y-98335000D01*
G75*
G02*
X106275000Y-98085000I0J250000D01*
G01*
X106275000Y-96565000D01*
G75*
G02*
X106525000Y-96315000I250000J0D01*
G01*
X107525000Y-96315000D01*
G75*
G02*
X107775000Y-96565000I0J-250000D01*
G01*
G37*
%TD.AperFunction*%
%TD*%
%TO.P,J2,2*%
%TO.N,GND*%
X84375000Y-97325000D03*
%TO.P,J2,1*%
%TO.N,VDD*%
%TA.AperFunction,ComponentPad*%
G36*
G01*
X88125000Y-96565000D02*
X88125000Y-98085000D01*
G75*
G02*
X87875000Y-98335000I-250000J0D01*
G01*
X86875000Y-98335000D01*
G75*
G02*
X86625000Y-98085000I0J250000D01*
G01*
X86625000Y-96565000D01*
G75*
G02*
X86875000Y-96315000I250000J0D01*
G01*
X87875000Y-96315000D01*
G75*
G02*
X88125000Y-96565000I0J-250000D01*
G01*
G37*
%TD.AperFunction*%
%TD*%
%TO.P,J1,3*%
%TO.N,Net-(J1-Pad3)*%
X70725000Y-97325000D03*
%TO.P,J1,2*%
%TO.N,Net-(J1-Pad2)*%
X73725000Y-97325000D03*
%TO.P,J1,1*%
%TO.N,+5V*%
%TA.AperFunction,ComponentPad*%
G36*
G01*
X77475000Y-96565000D02*
X77475000Y-98085000D01*
G75*
G02*
X77225000Y-98335000I-250000J0D01*
G01*
X76225000Y-98335000D01*
G75*
G02*
X75975000Y-98085000I0J250000D01*
G01*
X75975000Y-96565000D01*
G75*
G02*
X76225000Y-96315000I250000J0D01*
G01*
X77225000Y-96315000D01*
G75*
G02*
X77475000Y-96565000I0J-250000D01*
G01*
G37*
%TD.AperFunction*%
%TD*%
D13*
%TO.N,Net-(J1-Pad3)*%
X76200000Y-83795000D03*
%TO.N,Net-(J1-Pad2)*%
X76200000Y-82525000D03*
%TO.N,GND*%
X80010000Y-83795000D03*
X87630000Y-88240000D03*
X86995000Y-81890000D03*
%TO.N,Net-(Q3-Pad1)*%
X112395000Y-81890000D03*
%TD*%
D14*
%TO.N,Net-(J1-Pad3)*%
X76200000Y-83795000D02*
X76200000Y-93472000D01*
X76200000Y-93472000D02*
X78740000Y-96012000D01*
X78740000Y-96012000D02*
X78740000Y-98552000D01*
X78740000Y-98552000D02*
X78232000Y-99060000D01*
X72460000Y-99060000D02*
X70725000Y-97325000D01*
X78232000Y-99060000D02*
X72460000Y-99060000D01*
%TO.N,Net-(J1-Pad2)*%
X76200000Y-82525000D02*
X74193000Y-82525000D01*
X73725000Y-82993000D02*
X73725000Y-84901000D01*
X74193000Y-82525000D02*
X73725000Y-82993000D01*
X73725000Y-84901000D02*
X73725000Y-97325000D01*
D15*
%TO.N,GND*%
X106045000Y-80620000D02*
X103505000Y-83160000D01*
X120015000Y-81255000D02*
X119380000Y-80620000D01*
X120015000Y-83160000D02*
X120015000Y-81255000D01*
X107315000Y-80620000D02*
X106045000Y-80620000D01*
X119380000Y-80620000D02*
X107315000Y-80620000D01*
D14*
X86995000Y-80620000D02*
X86995000Y-81890000D01*
X87630000Y-88240000D02*
X87630000Y-86970000D01*
X86995000Y-86335000D02*
X86995000Y-81890000D01*
X87630000Y-86970000D02*
X86995000Y-86335000D01*
X80010000Y-83795000D02*
X80010000Y-80620000D01*
D15*
X80010000Y-80620000D02*
X86995000Y-80620000D01*
X119930000Y-80620000D02*
X119380000Y-80620000D01*
X119930000Y-80620000D02*
X121666000Y-80620000D01*
X84375000Y-97325000D02*
X83777000Y-97325000D01*
X83777000Y-97325000D02*
X82180010Y-98921990D01*
X103505000Y-92050000D02*
X103505000Y-91313000D01*
X103505000Y-91313000D02*
X101346000Y-89154000D01*
X101346000Y-89154000D02*
X97282000Y-89154000D01*
X95352000Y-87224000D02*
X95352000Y-80620000D01*
X97282000Y-89154000D02*
X95352000Y-87224000D01*
X95352000Y-80620000D02*
X107315000Y-80620000D01*
X86995000Y-80620000D02*
X95352000Y-80620000D01*
X120015000Y-92050000D02*
X120015000Y-93015000D01*
X128885010Y-95614990D02*
X129413000Y-95087000D01*
X122614990Y-95614990D02*
X128885010Y-95614990D01*
X120015000Y-93015000D02*
X122614990Y-95614990D01*
X129413000Y-79913000D02*
X129413000Y-89281000D01*
X128663422Y-79163422D02*
X129413000Y-79913000D01*
X129413000Y-89281000D02*
X129413000Y-95087000D01*
X122380000Y-80620000D02*
X123836578Y-79163422D01*
X121666000Y-80620000D02*
X122380000Y-80620000D01*
X67625010Y-79374990D02*
X67836578Y-79163422D01*
X125663422Y-79163422D02*
X128663422Y-79163422D01*
X123836578Y-79163422D02*
X125663422Y-79163422D01*
X75380000Y-80620000D02*
X75293156Y-80620000D01*
X75293156Y-80620000D02*
X73836578Y-79163422D01*
X73836578Y-79163422D02*
X125663422Y-79163422D01*
X67836578Y-79163422D02*
X73836578Y-79163422D01*
X75380000Y-80620000D02*
X80010000Y-80620000D01*
X70424873Y-84874990D02*
X74679863Y-80620000D01*
X74679863Y-80620000D02*
X75380000Y-80620000D01*
X67625010Y-84874990D02*
X70424873Y-84874990D01*
X67625010Y-84874990D02*
X67625010Y-79374990D01*
X68407021Y-103845001D02*
X67625010Y-103062990D01*
X129413000Y-103251000D02*
X128818999Y-103845001D01*
X129413000Y-102235000D02*
X129413000Y-103251000D01*
X67625010Y-103062990D02*
X67625010Y-84874990D01*
X129413000Y-102235000D02*
X129413000Y-95087000D01*
X84375000Y-97325000D02*
X81745000Y-97325000D01*
X79796999Y-103845001D02*
X68407021Y-103845001D01*
X81066999Y-103845001D02*
X81066999Y-100633001D01*
X81066999Y-103845001D02*
X79796999Y-103845001D01*
X86085010Y-99035010D02*
X88113010Y-99035010D01*
X88605001Y-99527001D02*
X88605001Y-103845001D01*
X88113010Y-99035010D02*
X88605001Y-99527001D01*
X88605001Y-103845001D02*
X81066999Y-103845001D01*
X128818999Y-103845001D02*
X88605001Y-103845001D01*
X83023000Y-98677000D02*
X82341000Y-99359000D01*
X85727000Y-98677000D02*
X83023000Y-98677000D01*
X82341000Y-99359000D02*
X84375000Y-97325000D01*
X81066999Y-100633001D02*
X82341000Y-99359000D01*
X84375000Y-97325000D02*
X85727000Y-98677000D01*
X85727000Y-98677000D02*
X86085010Y-99035010D01*
X84375000Y-97325000D02*
X84375000Y-96567000D01*
X84375000Y-96567000D02*
X84328000Y-96520000D01*
X84328000Y-96520000D02*
X82296000Y-96520000D01*
X82296000Y-96520000D02*
X81026000Y-97790000D01*
%TO.N,Net-(J3-Pad5)*%
X95025000Y-97325000D02*
X97014000Y-99314000D01*
X97014000Y-99314000D02*
X98552000Y-99314000D01*
X99473020Y-100235020D02*
X102710980Y-100235020D01*
X98552000Y-99314000D02*
X99473020Y-100235020D01*
X103910990Y-99035010D02*
X113513010Y-99035010D01*
X102710980Y-100235020D02*
X103910990Y-99035010D01*
X114675000Y-97873020D02*
X114675000Y-97325000D01*
X113513010Y-99035010D02*
X114675000Y-97873020D01*
%TO.N,Net-(J3-Pad4)*%
X103013010Y-95614990D02*
X116475010Y-95614990D01*
X102475010Y-96152990D02*
X103013010Y-95614990D01*
X102475010Y-98438990D02*
X102475010Y-96152990D01*
X101878990Y-99035010D02*
X102475010Y-98438990D01*
X100305010Y-99035010D02*
X101878990Y-99035010D01*
X98595000Y-97325000D02*
X100305010Y-99035010D01*
X98025000Y-97325000D02*
X98595000Y-97325000D01*
X117675000Y-96814980D02*
X116475010Y-95614990D01*
X117675000Y-97325000D02*
X117675000Y-96814980D01*
%TO.N,Net-(J3-Pad3)*%
X103124000Y-88900000D02*
X104902000Y-88900000D01*
X100965000Y-86741000D02*
X103124000Y-88900000D01*
X100965000Y-83160000D02*
X100965000Y-86741000D01*
X120675000Y-97325000D02*
X120675000Y-96037000D01*
X120675000Y-96037000D02*
X118872000Y-94234000D01*
X103124000Y-88900000D02*
X111300000Y-88900000D01*
X111300000Y-88900000D02*
X111300000Y-91518000D01*
X118872000Y-94234000D02*
X114016000Y-94234000D01*
X113641000Y-93859000D02*
X114016000Y-94234000D01*
X111300000Y-91518000D02*
X113641000Y-93859000D01*
X113582000Y-93800000D02*
X113641000Y-93859000D01*
X101025000Y-95211000D02*
X102436000Y-93800000D01*
X101025000Y-97325000D02*
X101025000Y-95211000D01*
X102436000Y-93800000D02*
X113582000Y-93800000D01*
D14*
%TO.N,Net-(Q3-Pad1)*%
X113665000Y-81890000D02*
X114935000Y-83160000D01*
X112395000Y-81890000D02*
X113665000Y-81890000D01*
%TD*%
D16*
%TO.N,GND*%
X124992607Y-80505940D02*
X124850890Y-80848075D01*
X124845932Y-80873000D01*
X112587432Y-80873000D01*
X112496939Y-80855000D01*
X112293061Y-80855000D01*
X112202568Y-80873000D01*
X75052606Y-80873000D01*
X73306606Y-79127000D01*
X125337342Y-79127000D01*
X124992607Y-80505940D01*
%TA.AperFunction,Conductor*%
D17*
G36*
X124992607Y-80505940D02*
G01*
X124850890Y-80848075D01*
X124845932Y-80873000D01*
X112587432Y-80873000D01*
X112496939Y-80855000D01*
X112293061Y-80855000D01*
X112202568Y-80873000D01*
X75052606Y-80873000D01*
X73306606Y-79127000D01*
X125337342Y-79127000D01*
X124992607Y-80505940D01*
G37*
%TD.AperFunction*%
%TD*%
D16*
%TO.N,GND*%
X124373000Y-88373000D02*
X119127000Y-88373000D01*
X119127000Y-84519052D01*
X119148077Y-84535969D01*
X119423906Y-84679571D01*
X119642020Y-84750563D01*
X119888000Y-84630594D01*
X119888000Y-83287000D01*
X120142000Y-83287000D01*
X120142000Y-84630594D01*
X120387980Y-84750563D01*
X120606094Y-84679571D01*
X120881923Y-84535969D01*
X121124437Y-84341315D01*
X121324316Y-84103089D01*
X121473879Y-83830446D01*
X121567378Y-83533863D01*
X121440570Y-83287000D01*
X120142000Y-83287000D01*
X119888000Y-83287000D01*
X119868000Y-83287000D01*
X119868000Y-83033000D01*
X119888000Y-83033000D01*
X119888000Y-81689406D01*
X120142000Y-81689406D01*
X120142000Y-83033000D01*
X121440570Y-83033000D01*
X121567378Y-82786137D01*
X121473879Y-82489554D01*
X121324316Y-82216911D01*
X121124437Y-81978685D01*
X120881923Y-81784031D01*
X120606094Y-81640429D01*
X120387980Y-81569437D01*
X120142000Y-81689406D01*
X119888000Y-81689406D01*
X119642020Y-81569437D01*
X119423906Y-81640429D01*
X119148077Y-81784031D01*
X119127000Y-81800948D01*
X119127000Y-81127000D01*
X124373000Y-81127000D01*
X124373000Y-88373000D01*
%TA.AperFunction,Conductor*%
D17*
G36*
X124373000Y-88373000D02*
G01*
X119127000Y-88373000D01*
X119127000Y-84519052D01*
X119148077Y-84535969D01*
X119423906Y-84679571D01*
X119642020Y-84750563D01*
X119888000Y-84630594D01*
X119888000Y-83287000D01*
X120142000Y-83287000D01*
X120142000Y-84630594D01*
X120387980Y-84750563D01*
X120606094Y-84679571D01*
X120881923Y-84535969D01*
X121124437Y-84341315D01*
X121324316Y-84103089D01*
X121473879Y-83830446D01*
X121567378Y-83533863D01*
X121440570Y-83287000D01*
X120142000Y-83287000D01*
X119888000Y-83287000D01*
X119868000Y-83287000D01*
X119868000Y-83033000D01*
X119888000Y-83033000D01*
X119888000Y-81689406D01*
X120142000Y-81689406D01*
X120142000Y-83033000D01*
X121440570Y-83033000D01*
X121567378Y-82786137D01*
X121473879Y-82489554D01*
X121324316Y-82216911D01*
X121124437Y-81978685D01*
X120881923Y-81784031D01*
X120606094Y-81640429D01*
X120387980Y-81569437D01*
X120142000Y-81689406D01*
X119888000Y-81689406D01*
X119642020Y-81569437D01*
X119423906Y-81640429D01*
X119148077Y-81784031D01*
X119127000Y-81800948D01*
X119127000Y-81127000D01*
X124373000Y-81127000D01*
X124373000Y-88373000D01*
G37*
%TD.AperFunction*%
%TD*%
D16*
%TO.N,GND*%
X128873000Y-90373000D02*
X128533767Y-90373000D01*
X128424729Y-90263962D01*
X128058669Y-90019369D01*
X127651925Y-89850890D01*
X127220128Y-89765000D01*
X126779872Y-89765000D01*
X126348075Y-89850890D01*
X125941331Y-90019369D01*
X125575271Y-90263962D01*
X125466233Y-90373000D01*
X119127000Y-90373000D01*
X119127000Y-84615978D01*
X119275778Y-84602453D01*
X119423906Y-84679571D01*
X119642020Y-84750563D01*
X119888000Y-84630594D01*
X119888000Y-84546796D01*
X120142000Y-84523705D01*
X120142000Y-84630594D01*
X120387980Y-84750563D01*
X120606094Y-84679571D01*
X120881923Y-84535969D01*
X120993662Y-84446281D01*
X124505756Y-84127000D01*
X128873000Y-84127000D01*
X128873000Y-90373000D01*
%TA.AperFunction,Conductor*%
D17*
G36*
X128873000Y-90373000D02*
G01*
X128533767Y-90373000D01*
X128424729Y-90263962D01*
X128058669Y-90019369D01*
X127651925Y-89850890D01*
X127220128Y-89765000D01*
X126779872Y-89765000D01*
X126348075Y-89850890D01*
X125941331Y-90019369D01*
X125575271Y-90263962D01*
X125466233Y-90373000D01*
X119127000Y-90373000D01*
X119127000Y-84615978D01*
X119275778Y-84602453D01*
X119423906Y-84679571D01*
X119642020Y-84750563D01*
X119888000Y-84630594D01*
X119888000Y-84546796D01*
X120142000Y-84523705D01*
X120142000Y-84630594D01*
X120387980Y-84750563D01*
X120606094Y-84679571D01*
X120881923Y-84535969D01*
X120993662Y-84446281D01*
X124505756Y-84127000D01*
X128873000Y-84127000D01*
X128873000Y-90373000D01*
G37*
%TD.AperFunction*%
%TD*%
D16*
%TO.N,GND*%
X124373000Y-95373000D02*
X122545980Y-95373000D01*
X120444845Y-93622054D01*
X120606094Y-93569571D01*
X120881923Y-93425969D01*
X121124437Y-93231315D01*
X121324316Y-92993089D01*
X121473879Y-92720446D01*
X121567378Y-92423863D01*
X121440570Y-92177000D01*
X120142000Y-92177000D01*
X120142000Y-92197000D01*
X119888000Y-92197000D01*
X119888000Y-92177000D01*
X119868000Y-92177000D01*
X119868000Y-91923000D01*
X119888000Y-91923000D01*
X119888000Y-91903000D01*
X120142000Y-91903000D01*
X120142000Y-91923000D01*
X121440570Y-91923000D01*
X121567378Y-91676137D01*
X121473879Y-91379554D01*
X121324316Y-91106911D01*
X121124437Y-90868685D01*
X120881923Y-90674031D01*
X120791586Y-90627000D01*
X124373000Y-90627000D01*
X124373000Y-95373000D01*
%TA.AperFunction,Conductor*%
D17*
G36*
X124373000Y-95373000D02*
G01*
X122545980Y-95373000D01*
X120444845Y-93622054D01*
X120606094Y-93569571D01*
X120881923Y-93425969D01*
X121124437Y-93231315D01*
X121324316Y-92993089D01*
X121473879Y-92720446D01*
X121567378Y-92423863D01*
X121440570Y-92177000D01*
X120142000Y-92177000D01*
X120142000Y-92197000D01*
X119888000Y-92197000D01*
X119888000Y-92177000D01*
X119868000Y-92177000D01*
X119868000Y-91923000D01*
X119888000Y-91923000D01*
X119888000Y-91903000D01*
X120142000Y-91903000D01*
X120142000Y-91923000D01*
X121440570Y-91923000D01*
X121567378Y-91676137D01*
X121473879Y-91379554D01*
X121324316Y-91106911D01*
X121124437Y-90868685D01*
X120881923Y-90674031D01*
X120791586Y-90627000D01*
X124373000Y-90627000D01*
X124373000Y-95373000D01*
G37*
%TD.AperFunction*%
%TD*%
D16*
%TO.N,GND*%
X72373000Y-90373000D02*
X72033767Y-90373000D01*
X71924729Y-90263962D01*
X71558669Y-90019369D01*
X71151925Y-89850890D01*
X70720128Y-89765000D01*
X70279872Y-89765000D01*
X69848075Y-89850890D01*
X69441331Y-90019369D01*
X69075271Y-90263962D01*
X68966233Y-90373000D01*
X68127000Y-90373000D01*
X68127000Y-84127000D01*
X72373000Y-84127000D01*
X72373000Y-90373000D01*
%TA.AperFunction,Conductor*%
D17*
G36*
X72373000Y-90373000D02*
G01*
X72033767Y-90373000D01*
X71924729Y-90263962D01*
X71558669Y-90019369D01*
X71151925Y-89850890D01*
X70720128Y-89765000D01*
X70279872Y-89765000D01*
X69848075Y-89850890D01*
X69441331Y-90019369D01*
X69075271Y-90263962D01*
X68966233Y-90373000D01*
X68127000Y-90373000D01*
X68127000Y-84127000D01*
X72373000Y-84127000D01*
X72373000Y-90373000D01*
G37*
%TD.AperFunction*%
%TD*%
D16*
%TO.N,GND*%
X83293972Y-96189939D02*
X83144028Y-96417651D01*
X83041389Y-96670240D01*
X82990000Y-96938000D01*
X82990000Y-97198000D01*
X84248000Y-97198000D01*
X84248000Y-97178000D01*
X84502000Y-97178000D01*
X84502000Y-97198000D01*
X84522000Y-97198000D01*
X84522000Y-97452000D01*
X84502000Y-97452000D01*
X84502000Y-97472000D01*
X84248000Y-97472000D01*
X84248000Y-97452000D01*
X82990000Y-97452000D01*
X82990000Y-97712000D01*
X83041389Y-97979760D01*
X83144028Y-98232349D01*
X83293972Y-98460061D01*
X83485460Y-98654145D01*
X83711132Y-98807142D01*
X83867147Y-98873000D01*
X83000000Y-98873000D01*
X82975224Y-98875440D01*
X82951399Y-98882667D01*
X82929443Y-98894403D01*
X82910197Y-98910197D01*
X82894403Y-98929443D01*
X82882667Y-98951399D01*
X82875440Y-98975224D01*
X82873000Y-99000000D01*
X82873000Y-103873000D01*
X75330957Y-103873000D01*
X80084959Y-99594398D01*
X80101742Y-99576010D01*
X80114616Y-99554700D01*
X80123085Y-99531289D01*
X80127000Y-99500000D01*
X80127000Y-96127000D01*
X83356069Y-96127000D01*
X83293972Y-96189939D01*
%TA.AperFunction,Conductor*%
D17*
G36*
X83293972Y-96189939D02*
G01*
X83144028Y-96417651D01*
X83041389Y-96670240D01*
X82990000Y-96938000D01*
X82990000Y-97198000D01*
X84248000Y-97198000D01*
X84248000Y-97178000D01*
X84502000Y-97178000D01*
X84502000Y-97198000D01*
X84522000Y-97198000D01*
X84522000Y-97452000D01*
X84502000Y-97452000D01*
X84502000Y-97472000D01*
X84248000Y-97472000D01*
X84248000Y-97452000D01*
X82990000Y-97452000D01*
X82990000Y-97712000D01*
X83041389Y-97979760D01*
X83144028Y-98232349D01*
X83293972Y-98460061D01*
X83485460Y-98654145D01*
X83711132Y-98807142D01*
X83867147Y-98873000D01*
X83000000Y-98873000D01*
X82975224Y-98875440D01*
X82951399Y-98882667D01*
X82929443Y-98894403D01*
X82910197Y-98910197D01*
X82894403Y-98929443D01*
X82882667Y-98951399D01*
X82875440Y-98975224D01*
X82873000Y-99000000D01*
X82873000Y-103873000D01*
X75330957Y-103873000D01*
X80084959Y-99594398D01*
X80101742Y-99576010D01*
X80114616Y-99554700D01*
X80123085Y-99531289D01*
X80127000Y-99500000D01*
X80127000Y-96127000D01*
X83356069Y-96127000D01*
X83293972Y-96189939D01*
G37*
%TD.AperFunction*%
%TD*%
D16*
%TO.N,GND*%
X72883326Y-104013000D02*
X68387039Y-104013000D01*
X67560000Y-102979202D01*
X67560000Y-97532430D01*
X72883326Y-104013000D01*
%TA.AperFunction,Conductor*%
D17*
G36*
X72883326Y-104013000D02*
G01*
X68387039Y-104013000D01*
X67560000Y-102979202D01*
X67560000Y-97532430D01*
X72883326Y-104013000D01*
G37*
%TD.AperFunction*%
%TD*%
D16*
%TO.N,GND*%
X94872613Y-100635847D02*
X95112856Y-103759000D01*
X88265000Y-103759000D01*
X88265000Y-98878666D01*
X88368386Y-98823405D01*
X88502962Y-98712962D01*
X88530834Y-98679000D01*
X93160372Y-98679000D01*
X94872613Y-100635847D01*
%TA.AperFunction,Conductor*%
D17*
G36*
X94872613Y-100635847D02*
G01*
X95112856Y-103759000D01*
X88265000Y-103759000D01*
X88265000Y-98878666D01*
X88368386Y-98823405D01*
X88502962Y-98712962D01*
X88530834Y-98679000D01*
X93160372Y-98679000D01*
X94872613Y-100635847D01*
G37*
%TD.AperFunction*%
%TD*%
M02*
