%TF.GenerationSoftware,KiCad,Pcbnew,5.1.7*%
%TF.CreationDate,2020-11-17T16:44:46+01:00*%
%TF.ProjectId,pca9632_led_controller,70636139-3633-4325-9f6c-65645f636f6e,rev?*%
%TF.SameCoordinates,Original*%
%TF.FileFunction,Legend,Top*%
%TF.FilePolarity,Positive*%
%FSLAX46Y46*%
G04 Gerber Fmt 4.6, Leading zero omitted, Abs format (unit mm)*
G04 Created by KiCad (PCBNEW 5.1.7) date 2020-11-17 16:44:46*
%MOMM*%
%LPD*%
G01*
G04 APERTURE LIST*
%ADD10C,0.150000*%
%ADD11C,0.127000*%
%ADD12C,0.200000*%
%ADD13C,0.120000*%
G04 APERTURE END LIST*
D10*
X74715714Y-89915428D02*
X75382380Y-89677333D01*
X74715714Y-89439238D01*
X75382380Y-88534476D02*
X75382380Y-89105904D01*
X75382380Y-88820190D02*
X74382380Y-88820190D01*
X74525238Y-88915428D01*
X74620476Y-89010666D01*
X74668095Y-89105904D01*
X75287142Y-88105904D02*
X75334761Y-88058285D01*
X75382380Y-88105904D01*
X75334761Y-88153523D01*
X75287142Y-88105904D01*
X75382380Y-88105904D01*
X74382380Y-87439238D02*
X74382380Y-87344000D01*
X74430000Y-87248761D01*
X74477619Y-87201142D01*
X74572857Y-87153523D01*
X74763333Y-87105904D01*
X75001428Y-87105904D01*
X75191904Y-87153523D01*
X75287142Y-87201142D01*
X75334761Y-87248761D01*
X75382380Y-87344000D01*
X75382380Y-87439238D01*
X75334761Y-87534476D01*
X75287142Y-87582095D01*
X75191904Y-87629714D01*
X75001428Y-87677333D01*
X74763333Y-87677333D01*
X74572857Y-87629714D01*
X74477619Y-87582095D01*
X74430000Y-87534476D01*
X74382380Y-87439238D01*
X75382380Y-85915428D02*
X74382380Y-85915428D01*
X74763333Y-85915428D02*
X74715714Y-85820190D01*
X74715714Y-85629714D01*
X74763333Y-85534476D01*
X74810952Y-85486857D01*
X74906190Y-85439238D01*
X75191904Y-85439238D01*
X75287142Y-85486857D01*
X75334761Y-85534476D01*
X75382380Y-85629714D01*
X75382380Y-85820190D01*
X75334761Y-85915428D01*
X74715714Y-85105904D02*
X75382380Y-84867809D01*
X74715714Y-84629714D02*
X75382380Y-84867809D01*
X75620476Y-84963047D01*
X75668095Y-85010666D01*
X75715714Y-85105904D01*
X75334761Y-83534476D02*
X75382380Y-83391619D01*
X75382380Y-83153523D01*
X75334761Y-83058285D01*
X75287142Y-83010666D01*
X75191904Y-82963047D01*
X75096666Y-82963047D01*
X75001428Y-83010666D01*
X74953809Y-83058285D01*
X74906190Y-83153523D01*
X74858571Y-83344000D01*
X74810952Y-83439238D01*
X74763333Y-83486857D01*
X74668095Y-83534476D01*
X74572857Y-83534476D01*
X74477619Y-83486857D01*
X74430000Y-83439238D01*
X74382380Y-83344000D01*
X74382380Y-83105904D01*
X74430000Y-82963047D01*
X75382380Y-82534476D02*
X74382380Y-82534476D01*
X74382380Y-82153523D01*
X74430000Y-82058285D01*
X74477619Y-82010666D01*
X74572857Y-81963047D01*
X74715714Y-81963047D01*
X74810952Y-82010666D01*
X74858571Y-82058285D01*
X74906190Y-82153523D01*
X74906190Y-82534476D01*
X75382380Y-81534476D02*
X74382380Y-81534476D01*
X75096666Y-81201142D01*
X74382380Y-80867809D01*
X75382380Y-80867809D01*
X74001523Y-79802095D02*
X74001523Y-78502095D01*
X74420571Y-78502095D01*
X74525333Y-78564000D01*
X74577714Y-78625904D01*
X74630095Y-78749714D01*
X74630095Y-78935428D01*
X74577714Y-79059238D01*
X74525333Y-79121142D01*
X74420571Y-79183047D01*
X74001523Y-79183047D01*
X75730095Y-79678285D02*
X75677714Y-79740190D01*
X75520571Y-79802095D01*
X75415809Y-79802095D01*
X75258666Y-79740190D01*
X75153904Y-79616380D01*
X75101523Y-79492571D01*
X75049142Y-79244952D01*
X75049142Y-79059238D01*
X75101523Y-78811619D01*
X75153904Y-78687809D01*
X75258666Y-78564000D01*
X75415809Y-78502095D01*
X75520571Y-78502095D01*
X75677714Y-78564000D01*
X75730095Y-78625904D01*
X76149142Y-79430666D02*
X76672952Y-79430666D01*
X76044380Y-79802095D02*
X76411047Y-78502095D01*
X76777714Y-79802095D01*
X77196761Y-79802095D02*
X77406285Y-79802095D01*
X77511047Y-79740190D01*
X77563428Y-79678285D01*
X77668190Y-79492571D01*
X77720571Y-79244952D01*
X77720571Y-78749714D01*
X77668190Y-78625904D01*
X77615809Y-78564000D01*
X77511047Y-78502095D01*
X77301523Y-78502095D01*
X77196761Y-78564000D01*
X77144380Y-78625904D01*
X77092000Y-78749714D01*
X77092000Y-79059238D01*
X77144380Y-79183047D01*
X77196761Y-79244952D01*
X77301523Y-79306857D01*
X77511047Y-79306857D01*
X77615809Y-79244952D01*
X77668190Y-79183047D01*
X77720571Y-79059238D01*
X78663428Y-78502095D02*
X78453904Y-78502095D01*
X78349142Y-78564000D01*
X78296761Y-78625904D01*
X78192000Y-78811619D01*
X78139619Y-79059238D01*
X78139619Y-79554476D01*
X78192000Y-79678285D01*
X78244380Y-79740190D01*
X78349142Y-79802095D01*
X78558666Y-79802095D01*
X78663428Y-79740190D01*
X78715809Y-79678285D01*
X78768190Y-79554476D01*
X78768190Y-79244952D01*
X78715809Y-79121142D01*
X78663428Y-79059238D01*
X78558666Y-78997333D01*
X78349142Y-78997333D01*
X78244380Y-79059238D01*
X78192000Y-79121142D01*
X78139619Y-79244952D01*
X79134857Y-78502095D02*
X79815809Y-78502095D01*
X79449142Y-78997333D01*
X79606285Y-78997333D01*
X79711047Y-79059238D01*
X79763428Y-79121142D01*
X79815809Y-79244952D01*
X79815809Y-79554476D01*
X79763428Y-79678285D01*
X79711047Y-79740190D01*
X79606285Y-79802095D01*
X79292000Y-79802095D01*
X79187238Y-79740190D01*
X79134857Y-79678285D01*
X80234857Y-78625904D02*
X80287238Y-78564000D01*
X80392000Y-78502095D01*
X80653904Y-78502095D01*
X80758666Y-78564000D01*
X80811047Y-78625904D01*
X80863428Y-78749714D01*
X80863428Y-78873523D01*
X80811047Y-79059238D01*
X80182476Y-79802095D01*
X80863428Y-79802095D01*
X82068190Y-78502095D02*
X82749142Y-78502095D01*
X82382476Y-78997333D01*
X82539619Y-78997333D01*
X82644380Y-79059238D01*
X82696761Y-79121142D01*
X82749142Y-79244952D01*
X82749142Y-79554476D01*
X82696761Y-79678285D01*
X82644380Y-79740190D01*
X82539619Y-79802095D01*
X82225333Y-79802095D01*
X82120571Y-79740190D01*
X82068190Y-79678285D01*
X83220571Y-79802095D02*
X83220571Y-78502095D01*
X83482476Y-78502095D01*
X83639619Y-78564000D01*
X83744380Y-78687809D01*
X83796761Y-78811619D01*
X83849142Y-79059238D01*
X83849142Y-79244952D01*
X83796761Y-79492571D01*
X83744380Y-79616380D01*
X83639619Y-79740190D01*
X83482476Y-79802095D01*
X83220571Y-79802095D01*
X85158666Y-78935428D02*
X85158666Y-80235428D01*
X85158666Y-78997333D02*
X85263428Y-78935428D01*
X85472952Y-78935428D01*
X85577714Y-78997333D01*
X85630095Y-79059238D01*
X85682476Y-79183047D01*
X85682476Y-79554476D01*
X85630095Y-79678285D01*
X85577714Y-79740190D01*
X85472952Y-79802095D01*
X85263428Y-79802095D01*
X85158666Y-79740190D01*
X86153904Y-79802095D02*
X86153904Y-78935428D01*
X86153904Y-79183047D02*
X86206285Y-79059238D01*
X86258666Y-78997333D01*
X86363428Y-78935428D01*
X86468190Y-78935428D01*
X86834857Y-79802095D02*
X86834857Y-78935428D01*
X86834857Y-78502095D02*
X86782476Y-78564000D01*
X86834857Y-78625904D01*
X86887238Y-78564000D01*
X86834857Y-78502095D01*
X86834857Y-78625904D01*
X87358666Y-78935428D02*
X87358666Y-79802095D01*
X87358666Y-79059238D02*
X87411047Y-78997333D01*
X87515809Y-78935428D01*
X87672952Y-78935428D01*
X87777714Y-78997333D01*
X87830095Y-79121142D01*
X87830095Y-79802095D01*
X88196761Y-78935428D02*
X88615809Y-78935428D01*
X88353904Y-78502095D02*
X88353904Y-79616380D01*
X88406285Y-79740190D01*
X88511047Y-79802095D01*
X88615809Y-79802095D01*
X89401523Y-79740190D02*
X89296761Y-79802095D01*
X89087238Y-79802095D01*
X88982476Y-79740190D01*
X88930095Y-79616380D01*
X88930095Y-79121142D01*
X88982476Y-78997333D01*
X89087238Y-78935428D01*
X89296761Y-78935428D01*
X89401523Y-78997333D01*
X89453904Y-79121142D01*
X89453904Y-79244952D01*
X88930095Y-79368761D01*
X89925333Y-79802095D02*
X89925333Y-78935428D01*
X89925333Y-79183047D02*
X89977714Y-79059238D01*
X90030095Y-78997333D01*
X90134857Y-78935428D01*
X90239619Y-78935428D01*
X76908666Y-81902095D02*
X76384857Y-81902095D01*
X76384857Y-80602095D01*
X77275333Y-81221142D02*
X77642000Y-81221142D01*
X77799142Y-81902095D02*
X77275333Y-81902095D01*
X77275333Y-80602095D01*
X77799142Y-80602095D01*
X78270571Y-81902095D02*
X78270571Y-80602095D01*
X78532476Y-80602095D01*
X78689619Y-80664000D01*
X78794380Y-80787809D01*
X78846761Y-80911619D01*
X78899142Y-81159238D01*
X78899142Y-81344952D01*
X78846761Y-81592571D01*
X78794380Y-81716380D01*
X78689619Y-81840190D01*
X78532476Y-81902095D01*
X78270571Y-81902095D01*
X80680095Y-81840190D02*
X80575333Y-81902095D01*
X80365809Y-81902095D01*
X80261047Y-81840190D01*
X80208666Y-81778285D01*
X80156285Y-81654476D01*
X80156285Y-81283047D01*
X80208666Y-81159238D01*
X80261047Y-81097333D01*
X80365809Y-81035428D01*
X80575333Y-81035428D01*
X80680095Y-81097333D01*
X81308666Y-81902095D02*
X81203904Y-81840190D01*
X81151523Y-81778285D01*
X81099142Y-81654476D01*
X81099142Y-81283047D01*
X81151523Y-81159238D01*
X81203904Y-81097333D01*
X81308666Y-81035428D01*
X81465809Y-81035428D01*
X81570571Y-81097333D01*
X81622952Y-81159238D01*
X81675333Y-81283047D01*
X81675333Y-81654476D01*
X81622952Y-81778285D01*
X81570571Y-81840190D01*
X81465809Y-81902095D01*
X81308666Y-81902095D01*
X82146761Y-81035428D02*
X82146761Y-81902095D01*
X82146761Y-81159238D02*
X82199142Y-81097333D01*
X82303904Y-81035428D01*
X82461047Y-81035428D01*
X82565809Y-81097333D01*
X82618190Y-81221142D01*
X82618190Y-81902095D01*
X82984857Y-81035428D02*
X83403904Y-81035428D01*
X83142000Y-80602095D02*
X83142000Y-81716380D01*
X83194380Y-81840190D01*
X83299142Y-81902095D01*
X83403904Y-81902095D01*
X83770571Y-81902095D02*
X83770571Y-81035428D01*
X83770571Y-81283047D02*
X83822952Y-81159238D01*
X83875333Y-81097333D01*
X83980095Y-81035428D01*
X84084857Y-81035428D01*
X84608666Y-81902095D02*
X84503904Y-81840190D01*
X84451523Y-81778285D01*
X84399142Y-81654476D01*
X84399142Y-81283047D01*
X84451523Y-81159238D01*
X84503904Y-81097333D01*
X84608666Y-81035428D01*
X84765809Y-81035428D01*
X84870571Y-81097333D01*
X84922952Y-81159238D01*
X84975333Y-81283047D01*
X84975333Y-81654476D01*
X84922952Y-81778285D01*
X84870571Y-81840190D01*
X84765809Y-81902095D01*
X84608666Y-81902095D01*
X85603904Y-81902095D02*
X85499142Y-81840190D01*
X85446761Y-81716380D01*
X85446761Y-80602095D01*
X86180095Y-81902095D02*
X86075333Y-81840190D01*
X86022952Y-81716380D01*
X86022952Y-80602095D01*
X87018190Y-81840190D02*
X86913428Y-81902095D01*
X86703904Y-81902095D01*
X86599142Y-81840190D01*
X86546761Y-81716380D01*
X86546761Y-81221142D01*
X86599142Y-81097333D01*
X86703904Y-81035428D01*
X86913428Y-81035428D01*
X87018190Y-81097333D01*
X87070571Y-81221142D01*
X87070571Y-81344952D01*
X86546761Y-81468761D01*
X87542000Y-81902095D02*
X87542000Y-81035428D01*
X87542000Y-81283047D02*
X87594380Y-81159238D01*
X87646761Y-81097333D01*
X87751523Y-81035428D01*
X87856285Y-81035428D01*
D11*
%TO.C,U1*%
X80240000Y-89105000D02*
X80240000Y-86105000D01*
X77240000Y-89105000D02*
X77240000Y-86105000D01*
D12*
X77540000Y-91190000D02*
G75*
G03*
X77540000Y-91190000I-100000J0D01*
G01*
D13*
%TO.C,R12*%
X84990000Y-84202936D02*
X84990000Y-84657064D01*
X86460000Y-84202936D02*
X86460000Y-84657064D01*
%TO.C,R11*%
X83920000Y-84657064D02*
X83920000Y-84202936D01*
X82450000Y-84657064D02*
X82450000Y-84202936D01*
%TO.C,R10*%
X86460000Y-90372064D02*
X86460000Y-89917936D01*
X84990000Y-90372064D02*
X84990000Y-89917936D01*
%TO.C,R9*%
X82450000Y-89917936D02*
X82450000Y-90372064D01*
X83920000Y-89917936D02*
X83920000Y-90372064D01*
%TO.C,R8*%
X109627936Y-90245000D02*
X110082064Y-90245000D01*
X109627936Y-88775000D02*
X110082064Y-88775000D01*
%TO.C,R7*%
X110082064Y-92585000D02*
X109627936Y-92585000D01*
X110082064Y-94055000D02*
X109627936Y-94055000D01*
%TO.C,R6*%
X109627936Y-82625000D02*
X110082064Y-82625000D01*
X109627936Y-81155000D02*
X110082064Y-81155000D01*
%TO.C,R5*%
X110082064Y-84965000D02*
X109627936Y-84965000D01*
X110082064Y-86435000D02*
X109627936Y-86435000D01*
%TO.C,R4*%
X93117936Y-82625000D02*
X93572064Y-82625000D01*
X93117936Y-81155000D02*
X93572064Y-81155000D01*
%TO.C,R3*%
X93572064Y-84965000D02*
X93117936Y-84965000D01*
X93572064Y-86435000D02*
X93117936Y-86435000D01*
%TO.C,R2*%
X93117936Y-90245000D02*
X93572064Y-90245000D01*
X93117936Y-88775000D02*
X93572064Y-88775000D01*
%TO.C,R1*%
X93572064Y-92585000D02*
X93117936Y-92585000D01*
X93572064Y-94055000D02*
X93117936Y-94055000D01*
%TO.C,Q4*%
X119326000Y-88780000D02*
X119326000Y-90290000D01*
X115625000Y-88780000D02*
X115625000Y-90290000D01*
X112355000Y-90290000D02*
X122595000Y-90290000D01*
X122595000Y-88780000D02*
X122595000Y-93421000D01*
X112355000Y-88780000D02*
X112355000Y-93421000D01*
X112355000Y-93421000D02*
X122595000Y-93421000D01*
X112355000Y-88780000D02*
X122595000Y-88780000D01*
%TO.C,Q3*%
X119326000Y-79890000D02*
X119326000Y-81400000D01*
X115625000Y-79890000D02*
X115625000Y-81400000D01*
X112355000Y-81400000D02*
X122595000Y-81400000D01*
X122595000Y-79890000D02*
X122595000Y-84531000D01*
X112355000Y-79890000D02*
X112355000Y-84531000D01*
X112355000Y-84531000D02*
X122595000Y-84531000D01*
X112355000Y-79890000D02*
X122595000Y-79890000D01*
%TO.C,Q2*%
X102816000Y-79890000D02*
X102816000Y-81400000D01*
X99115000Y-79890000D02*
X99115000Y-81400000D01*
X95845000Y-81400000D02*
X106085000Y-81400000D01*
X106085000Y-79890000D02*
X106085000Y-84531000D01*
X95845000Y-79890000D02*
X95845000Y-84531000D01*
X95845000Y-84531000D02*
X106085000Y-84531000D01*
X95845000Y-79890000D02*
X106085000Y-79890000D01*
%TO.C,Q1*%
X102816000Y-88780000D02*
X102816000Y-90290000D01*
X99115000Y-88780000D02*
X99115000Y-90290000D01*
X95845000Y-90290000D02*
X106085000Y-90290000D01*
X106085000Y-88780000D02*
X106085000Y-93421000D01*
X95845000Y-88780000D02*
X95845000Y-93421000D01*
X95845000Y-93421000D02*
X106085000Y-93421000D01*
X95845000Y-88780000D02*
X106085000Y-88780000D01*
%TO.C,J4*%
X117023233Y-96235000D02*
X115326767Y-96235000D01*
X120023233Y-96235000D02*
X118326767Y-96235000D01*
X123023233Y-96235000D02*
X121326767Y-96235000D01*
X125665000Y-96235000D02*
X124326767Y-96235000D01*
X111240000Y-96235000D02*
X114023233Y-96235000D01*
X130110000Y-96235000D02*
X127685000Y-96235000D01*
X111240000Y-105355000D02*
X111240000Y-96235000D01*
X112240000Y-106355000D02*
X111240000Y-105355000D01*
X129110000Y-106355000D02*
X112240000Y-106355000D01*
X130110000Y-105355000D02*
X129110000Y-106355000D01*
X130110000Y-96235000D02*
X130110000Y-105355000D01*
%TO.C,J3*%
X97373233Y-96235000D02*
X95676767Y-96235000D01*
X100373233Y-96235000D02*
X98676767Y-96235000D01*
X103373233Y-96235000D02*
X101676767Y-96235000D01*
X106015000Y-96235000D02*
X104676767Y-96235000D01*
X91590000Y-96235000D02*
X94373233Y-96235000D01*
X110460000Y-96235000D02*
X108035000Y-96235000D01*
X91590000Y-105355000D02*
X91590000Y-96235000D01*
X92590000Y-106355000D02*
X91590000Y-105355000D01*
X109460000Y-106355000D02*
X92590000Y-106355000D01*
X110460000Y-105355000D02*
X109460000Y-106355000D01*
X110460000Y-96235000D02*
X110460000Y-105355000D01*
%TO.C,J2*%
X86365000Y-96235000D02*
X85026767Y-96235000D01*
X80940000Y-96235000D02*
X83723233Y-96235000D01*
X90810000Y-96235000D02*
X88385000Y-96235000D01*
X80940000Y-105355000D02*
X80940000Y-96235000D01*
X81940000Y-106355000D02*
X80940000Y-105355000D01*
X89810000Y-106355000D02*
X81940000Y-106355000D01*
X90810000Y-105355000D02*
X89810000Y-106355000D01*
X90810000Y-96235000D02*
X90810000Y-105355000D01*
%TO.C,J1*%
X73073233Y-96235000D02*
X71376767Y-96235000D01*
X75715000Y-96235000D02*
X74376767Y-96235000D01*
X67290000Y-96235000D02*
X70073233Y-96235000D01*
X80160000Y-96235000D02*
X77735000Y-96235000D01*
X67290000Y-105355000D02*
X67290000Y-96235000D01*
X68290000Y-106355000D02*
X67290000Y-105355000D01*
X79160000Y-106355000D02*
X68290000Y-106355000D01*
X80160000Y-105355000D02*
X79160000Y-106355000D01*
X80160000Y-96235000D02*
X80160000Y-105355000D01*
%TO.C,U1*%
D10*
X77978095Y-83272380D02*
X77978095Y-84081904D01*
X78025714Y-84177142D01*
X78073333Y-84224761D01*
X78168571Y-84272380D01*
X78359047Y-84272380D01*
X78454285Y-84224761D01*
X78501904Y-84177142D01*
X78549523Y-84081904D01*
X78549523Y-83272380D01*
X79549523Y-84272380D02*
X78978095Y-84272380D01*
X79263809Y-84272380D02*
X79263809Y-83272380D01*
X79168571Y-83415238D01*
X79073333Y-83510476D01*
X78978095Y-83558095D01*
X75136761Y-92908380D02*
X75136761Y-91908380D01*
X75517714Y-91908380D01*
X75612952Y-91956000D01*
X75660571Y-92003619D01*
X75708190Y-92098857D01*
X75708190Y-92241714D01*
X75660571Y-92336952D01*
X75612952Y-92384571D01*
X75517714Y-92432190D01*
X75136761Y-92432190D01*
X76708190Y-92813142D02*
X76660571Y-92860761D01*
X76517714Y-92908380D01*
X76422476Y-92908380D01*
X76279619Y-92860761D01*
X76184380Y-92765523D01*
X76136761Y-92670285D01*
X76089142Y-92479809D01*
X76089142Y-92336952D01*
X76136761Y-92146476D01*
X76184380Y-92051238D01*
X76279619Y-91956000D01*
X76422476Y-91908380D01*
X76517714Y-91908380D01*
X76660571Y-91956000D01*
X76708190Y-92003619D01*
X77089142Y-92622666D02*
X77565333Y-92622666D01*
X76993904Y-92908380D02*
X77327238Y-91908380D01*
X77660571Y-92908380D01*
X78041523Y-92908380D02*
X78232000Y-92908380D01*
X78327238Y-92860761D01*
X78374857Y-92813142D01*
X78470095Y-92670285D01*
X78517714Y-92479809D01*
X78517714Y-92098857D01*
X78470095Y-92003619D01*
X78422476Y-91956000D01*
X78327238Y-91908380D01*
X78136761Y-91908380D01*
X78041523Y-91956000D01*
X77993904Y-92003619D01*
X77946285Y-92098857D01*
X77946285Y-92336952D01*
X77993904Y-92432190D01*
X78041523Y-92479809D01*
X78136761Y-92527428D01*
X78327238Y-92527428D01*
X78422476Y-92479809D01*
X78470095Y-92432190D01*
X78517714Y-92336952D01*
X79374857Y-91908380D02*
X79184380Y-91908380D01*
X79089142Y-91956000D01*
X79041523Y-92003619D01*
X78946285Y-92146476D01*
X78898666Y-92336952D01*
X78898666Y-92717904D01*
X78946285Y-92813142D01*
X78993904Y-92860761D01*
X79089142Y-92908380D01*
X79279619Y-92908380D01*
X79374857Y-92860761D01*
X79422476Y-92813142D01*
X79470095Y-92717904D01*
X79470095Y-92479809D01*
X79422476Y-92384571D01*
X79374857Y-92336952D01*
X79279619Y-92289333D01*
X79089142Y-92289333D01*
X78993904Y-92336952D01*
X78946285Y-92384571D01*
X78898666Y-92479809D01*
X79803428Y-91908380D02*
X80422476Y-91908380D01*
X80089142Y-92289333D01*
X80232000Y-92289333D01*
X80327238Y-92336952D01*
X80374857Y-92384571D01*
X80422476Y-92479809D01*
X80422476Y-92717904D01*
X80374857Y-92813142D01*
X80327238Y-92860761D01*
X80232000Y-92908380D01*
X79946285Y-92908380D01*
X79851047Y-92860761D01*
X79803428Y-92813142D01*
X80803428Y-92003619D02*
X80851047Y-91956000D01*
X80946285Y-91908380D01*
X81184380Y-91908380D01*
X81279619Y-91956000D01*
X81327238Y-92003619D01*
X81374857Y-92098857D01*
X81374857Y-92194095D01*
X81327238Y-92336952D01*
X80755809Y-92908380D01*
X81374857Y-92908380D01*
%TO.C,R12*%
X85463142Y-87828380D02*
X85129809Y-87352190D01*
X84891714Y-87828380D02*
X84891714Y-86828380D01*
X85272666Y-86828380D01*
X85367904Y-86876000D01*
X85415523Y-86923619D01*
X85463142Y-87018857D01*
X85463142Y-87161714D01*
X85415523Y-87256952D01*
X85367904Y-87304571D01*
X85272666Y-87352190D01*
X84891714Y-87352190D01*
X86415523Y-87828380D02*
X85844095Y-87828380D01*
X86129809Y-87828380D02*
X86129809Y-86828380D01*
X86034571Y-86971238D01*
X85939333Y-87066476D01*
X85844095Y-87114095D01*
X86796476Y-86923619D02*
X86844095Y-86876000D01*
X86939333Y-86828380D01*
X87177428Y-86828380D01*
X87272666Y-86876000D01*
X87320285Y-86923619D01*
X87367904Y-87018857D01*
X87367904Y-87114095D01*
X87320285Y-87256952D01*
X86748857Y-87828380D01*
X87367904Y-87828380D01*
X88082380Y-85660238D02*
X88082380Y-86231666D01*
X88082380Y-85945952D02*
X87082380Y-85945952D01*
X87225238Y-86041190D01*
X87320476Y-86136428D01*
X87368095Y-86231666D01*
X88082380Y-85231666D02*
X87082380Y-85231666D01*
X87701428Y-85136428D02*
X88082380Y-84850714D01*
X87415714Y-84850714D02*
X87796666Y-85231666D01*
X87177619Y-84469761D02*
X87130000Y-84422142D01*
X87082380Y-84326904D01*
X87082380Y-84088809D01*
X87130000Y-83993571D01*
X87177619Y-83945952D01*
X87272857Y-83898333D01*
X87368095Y-83898333D01*
X87510952Y-83945952D01*
X88082380Y-84517380D01*
X88082380Y-83898333D01*
%TO.C,R11*%
X81907142Y-87828380D02*
X81573809Y-87352190D01*
X81335714Y-87828380D02*
X81335714Y-86828380D01*
X81716666Y-86828380D01*
X81811904Y-86876000D01*
X81859523Y-86923619D01*
X81907142Y-87018857D01*
X81907142Y-87161714D01*
X81859523Y-87256952D01*
X81811904Y-87304571D01*
X81716666Y-87352190D01*
X81335714Y-87352190D01*
X82859523Y-87828380D02*
X82288095Y-87828380D01*
X82573809Y-87828380D02*
X82573809Y-86828380D01*
X82478571Y-86971238D01*
X82383333Y-87066476D01*
X82288095Y-87114095D01*
X83811904Y-87828380D02*
X83240476Y-87828380D01*
X83526190Y-87828380D02*
X83526190Y-86828380D01*
X83430952Y-86971238D01*
X83335714Y-87066476D01*
X83240476Y-87114095D01*
X81732380Y-85660238D02*
X81732380Y-86231666D01*
X81732380Y-85945952D02*
X80732380Y-85945952D01*
X80875238Y-86041190D01*
X80970476Y-86136428D01*
X81018095Y-86231666D01*
X81732380Y-85231666D02*
X80732380Y-85231666D01*
X81351428Y-85136428D02*
X81732380Y-84850714D01*
X81065714Y-84850714D02*
X81446666Y-85231666D01*
X80827619Y-84469761D02*
X80780000Y-84422142D01*
X80732380Y-84326904D01*
X80732380Y-84088809D01*
X80780000Y-83993571D01*
X80827619Y-83945952D01*
X80922857Y-83898333D01*
X81018095Y-83898333D01*
X81160952Y-83945952D01*
X81732380Y-84517380D01*
X81732380Y-83898333D01*
%TO.C,R10*%
X86177380Y-93962857D02*
X85701190Y-94296190D01*
X86177380Y-94534285D02*
X85177380Y-94534285D01*
X85177380Y-94153333D01*
X85225000Y-94058095D01*
X85272619Y-94010476D01*
X85367857Y-93962857D01*
X85510714Y-93962857D01*
X85605952Y-94010476D01*
X85653571Y-94058095D01*
X85701190Y-94153333D01*
X85701190Y-94534285D01*
X86177380Y-93010476D02*
X86177380Y-93581904D01*
X86177380Y-93296190D02*
X85177380Y-93296190D01*
X85320238Y-93391428D01*
X85415476Y-93486666D01*
X85463095Y-93581904D01*
X85177380Y-92391428D02*
X85177380Y-92296190D01*
X85225000Y-92200952D01*
X85272619Y-92153333D01*
X85367857Y-92105714D01*
X85558333Y-92058095D01*
X85796428Y-92058095D01*
X85986904Y-92105714D01*
X86082142Y-92153333D01*
X86129761Y-92200952D01*
X86177380Y-92296190D01*
X86177380Y-92391428D01*
X86129761Y-92486666D01*
X86082142Y-92534285D01*
X85986904Y-92581904D01*
X85796428Y-92629523D01*
X85558333Y-92629523D01*
X85367857Y-92581904D01*
X85272619Y-92534285D01*
X85225000Y-92486666D01*
X85177380Y-92391428D01*
X87827380Y-90740238D02*
X87827380Y-91311666D01*
X87827380Y-91025952D02*
X86827380Y-91025952D01*
X86970238Y-91121190D01*
X87065476Y-91216428D01*
X87113095Y-91311666D01*
X87827380Y-90311666D02*
X86827380Y-90311666D01*
X87446428Y-90216428D02*
X87827380Y-89930714D01*
X87160714Y-89930714D02*
X87541666Y-90311666D01*
X86922619Y-89549761D02*
X86875000Y-89502142D01*
X86827380Y-89406904D01*
X86827380Y-89168809D01*
X86875000Y-89073571D01*
X86922619Y-89025952D01*
X87017857Y-88978333D01*
X87113095Y-88978333D01*
X87255952Y-89025952D01*
X87827380Y-89597380D01*
X87827380Y-88978333D01*
%TO.C,R9*%
X83637380Y-93486666D02*
X83161190Y-93820000D01*
X83637380Y-94058095D02*
X82637380Y-94058095D01*
X82637380Y-93677142D01*
X82685000Y-93581904D01*
X82732619Y-93534285D01*
X82827857Y-93486666D01*
X82970714Y-93486666D01*
X83065952Y-93534285D01*
X83113571Y-93581904D01*
X83161190Y-93677142D01*
X83161190Y-94058095D01*
X83637380Y-93010476D02*
X83637380Y-92820000D01*
X83589761Y-92724761D01*
X83542142Y-92677142D01*
X83399285Y-92581904D01*
X83208809Y-92534285D01*
X82827857Y-92534285D01*
X82732619Y-92581904D01*
X82685000Y-92629523D01*
X82637380Y-92724761D01*
X82637380Y-92915238D01*
X82685000Y-93010476D01*
X82732619Y-93058095D01*
X82827857Y-93105714D01*
X83065952Y-93105714D01*
X83161190Y-93058095D01*
X83208809Y-93010476D01*
X83256428Y-92915238D01*
X83256428Y-92724761D01*
X83208809Y-92629523D01*
X83161190Y-92581904D01*
X83065952Y-92534285D01*
X81987380Y-90740238D02*
X81987380Y-91311666D01*
X81987380Y-91025952D02*
X80987380Y-91025952D01*
X81130238Y-91121190D01*
X81225476Y-91216428D01*
X81273095Y-91311666D01*
X81987380Y-90311666D02*
X80987380Y-90311666D01*
X81606428Y-90216428D02*
X81987380Y-89930714D01*
X81320714Y-89930714D02*
X81701666Y-90311666D01*
X81082619Y-89549761D02*
X81035000Y-89502142D01*
X80987380Y-89406904D01*
X80987380Y-89168809D01*
X81035000Y-89073571D01*
X81082619Y-89025952D01*
X81177857Y-88978333D01*
X81273095Y-88978333D01*
X81415952Y-89025952D01*
X81987380Y-89597380D01*
X81987380Y-88978333D01*
%TO.C,R8*%
X107783333Y-88312380D02*
X107450000Y-87836190D01*
X107211904Y-88312380D02*
X107211904Y-87312380D01*
X107592857Y-87312380D01*
X107688095Y-87360000D01*
X107735714Y-87407619D01*
X107783333Y-87502857D01*
X107783333Y-87645714D01*
X107735714Y-87740952D01*
X107688095Y-87788571D01*
X107592857Y-87836190D01*
X107211904Y-87836190D01*
X108354761Y-87740952D02*
X108259523Y-87693333D01*
X108211904Y-87645714D01*
X108164285Y-87550476D01*
X108164285Y-87502857D01*
X108211904Y-87407619D01*
X108259523Y-87360000D01*
X108354761Y-87312380D01*
X108545238Y-87312380D01*
X108640476Y-87360000D01*
X108688095Y-87407619D01*
X108735714Y-87502857D01*
X108735714Y-87550476D01*
X108688095Y-87645714D01*
X108640476Y-87693333D01*
X108545238Y-87740952D01*
X108354761Y-87740952D01*
X108259523Y-87788571D01*
X108211904Y-87836190D01*
X108164285Y-87931428D01*
X108164285Y-88121904D01*
X108211904Y-88217142D01*
X108259523Y-88264761D01*
X108354761Y-88312380D01*
X108545238Y-88312380D01*
X108640476Y-88264761D01*
X108688095Y-88217142D01*
X108735714Y-88121904D01*
X108735714Y-87931428D01*
X108688095Y-87836190D01*
X108640476Y-87788571D01*
X108545238Y-87740952D01*
X109799523Y-87645714D02*
X109799523Y-88312380D01*
X109561428Y-87264761D02*
X109323333Y-87979047D01*
X109942380Y-87979047D01*
X110323333Y-88312380D02*
X110323333Y-87312380D01*
X110418571Y-87931428D02*
X110704285Y-88312380D01*
X110704285Y-87645714D02*
X110323333Y-88026666D01*
X111037619Y-87312380D02*
X111704285Y-87312380D01*
X111275714Y-88312380D01*
%TO.C,R7*%
X107783333Y-91867380D02*
X107450000Y-91391190D01*
X107211904Y-91867380D02*
X107211904Y-90867380D01*
X107592857Y-90867380D01*
X107688095Y-90915000D01*
X107735714Y-90962619D01*
X107783333Y-91057857D01*
X107783333Y-91200714D01*
X107735714Y-91295952D01*
X107688095Y-91343571D01*
X107592857Y-91391190D01*
X107211904Y-91391190D01*
X108116666Y-90867380D02*
X108783333Y-90867380D01*
X108354761Y-91867380D01*
X109799523Y-91200714D02*
X109799523Y-91867380D01*
X109561428Y-90819761D02*
X109323333Y-91534047D01*
X109942380Y-91534047D01*
X110323333Y-91867380D02*
X110323333Y-90867380D01*
X110418571Y-91486428D02*
X110704285Y-91867380D01*
X110704285Y-91200714D02*
X110323333Y-91581666D01*
X111037619Y-90867380D02*
X111704285Y-90867380D01*
X111275714Y-91867380D01*
%TO.C,R6*%
X107783333Y-80437380D02*
X107450000Y-79961190D01*
X107211904Y-80437380D02*
X107211904Y-79437380D01*
X107592857Y-79437380D01*
X107688095Y-79485000D01*
X107735714Y-79532619D01*
X107783333Y-79627857D01*
X107783333Y-79770714D01*
X107735714Y-79865952D01*
X107688095Y-79913571D01*
X107592857Y-79961190D01*
X107211904Y-79961190D01*
X108640476Y-79437380D02*
X108450000Y-79437380D01*
X108354761Y-79485000D01*
X108307142Y-79532619D01*
X108211904Y-79675476D01*
X108164285Y-79865952D01*
X108164285Y-80246904D01*
X108211904Y-80342142D01*
X108259523Y-80389761D01*
X108354761Y-80437380D01*
X108545238Y-80437380D01*
X108640476Y-80389761D01*
X108688095Y-80342142D01*
X108735714Y-80246904D01*
X108735714Y-80008809D01*
X108688095Y-79913571D01*
X108640476Y-79865952D01*
X108545238Y-79818333D01*
X108354761Y-79818333D01*
X108259523Y-79865952D01*
X108211904Y-79913571D01*
X108164285Y-80008809D01*
X109799523Y-79770714D02*
X109799523Y-80437380D01*
X109561428Y-79389761D02*
X109323333Y-80104047D01*
X109942380Y-80104047D01*
X110323333Y-80437380D02*
X110323333Y-79437380D01*
X110418571Y-80056428D02*
X110704285Y-80437380D01*
X110704285Y-79770714D02*
X110323333Y-80151666D01*
X111037619Y-79437380D02*
X111704285Y-79437380D01*
X111275714Y-80437380D01*
%TO.C,R5*%
X107783333Y-84502380D02*
X107450000Y-84026190D01*
X107211904Y-84502380D02*
X107211904Y-83502380D01*
X107592857Y-83502380D01*
X107688095Y-83550000D01*
X107735714Y-83597619D01*
X107783333Y-83692857D01*
X107783333Y-83835714D01*
X107735714Y-83930952D01*
X107688095Y-83978571D01*
X107592857Y-84026190D01*
X107211904Y-84026190D01*
X108688095Y-83502380D02*
X108211904Y-83502380D01*
X108164285Y-83978571D01*
X108211904Y-83930952D01*
X108307142Y-83883333D01*
X108545238Y-83883333D01*
X108640476Y-83930952D01*
X108688095Y-83978571D01*
X108735714Y-84073809D01*
X108735714Y-84311904D01*
X108688095Y-84407142D01*
X108640476Y-84454761D01*
X108545238Y-84502380D01*
X108307142Y-84502380D01*
X108211904Y-84454761D01*
X108164285Y-84407142D01*
X109799523Y-83835714D02*
X109799523Y-84502380D01*
X109561428Y-83454761D02*
X109323333Y-84169047D01*
X109942380Y-84169047D01*
X110323333Y-84502380D02*
X110323333Y-83502380D01*
X110418571Y-84121428D02*
X110704285Y-84502380D01*
X110704285Y-83835714D02*
X110323333Y-84216666D01*
X111037619Y-83502380D02*
X111704285Y-83502380D01*
X111275714Y-84502380D01*
%TO.C,R4*%
X91273333Y-80692380D02*
X90940000Y-80216190D01*
X90701904Y-80692380D02*
X90701904Y-79692380D01*
X91082857Y-79692380D01*
X91178095Y-79740000D01*
X91225714Y-79787619D01*
X91273333Y-79882857D01*
X91273333Y-80025714D01*
X91225714Y-80120952D01*
X91178095Y-80168571D01*
X91082857Y-80216190D01*
X90701904Y-80216190D01*
X92130476Y-80025714D02*
X92130476Y-80692380D01*
X91892380Y-79644761D02*
X91654285Y-80359047D01*
X92273333Y-80359047D01*
X93289523Y-80025714D02*
X93289523Y-80692380D01*
X93051428Y-79644761D02*
X92813333Y-80359047D01*
X93432380Y-80359047D01*
X93813333Y-80692380D02*
X93813333Y-79692380D01*
X93908571Y-80311428D02*
X94194285Y-80692380D01*
X94194285Y-80025714D02*
X93813333Y-80406666D01*
X94527619Y-79692380D02*
X95194285Y-79692380D01*
X94765714Y-80692380D01*
%TO.C,R3*%
X91273333Y-84502380D02*
X90940000Y-84026190D01*
X90701904Y-84502380D02*
X90701904Y-83502380D01*
X91082857Y-83502380D01*
X91178095Y-83550000D01*
X91225714Y-83597619D01*
X91273333Y-83692857D01*
X91273333Y-83835714D01*
X91225714Y-83930952D01*
X91178095Y-83978571D01*
X91082857Y-84026190D01*
X90701904Y-84026190D01*
X91606666Y-83502380D02*
X92225714Y-83502380D01*
X91892380Y-83883333D01*
X92035238Y-83883333D01*
X92130476Y-83930952D01*
X92178095Y-83978571D01*
X92225714Y-84073809D01*
X92225714Y-84311904D01*
X92178095Y-84407142D01*
X92130476Y-84454761D01*
X92035238Y-84502380D01*
X91749523Y-84502380D01*
X91654285Y-84454761D01*
X91606666Y-84407142D01*
%TO.C,R2*%
X91273333Y-88312380D02*
X90940000Y-87836190D01*
X90701904Y-88312380D02*
X90701904Y-87312380D01*
X91082857Y-87312380D01*
X91178095Y-87360000D01*
X91225714Y-87407619D01*
X91273333Y-87502857D01*
X91273333Y-87645714D01*
X91225714Y-87740952D01*
X91178095Y-87788571D01*
X91082857Y-87836190D01*
X90701904Y-87836190D01*
X91654285Y-87407619D02*
X91701904Y-87360000D01*
X91797142Y-87312380D01*
X92035238Y-87312380D01*
X92130476Y-87360000D01*
X92178095Y-87407619D01*
X92225714Y-87502857D01*
X92225714Y-87598095D01*
X92178095Y-87740952D01*
X91606666Y-88312380D01*
X92225714Y-88312380D01*
X93289523Y-87645714D02*
X93289523Y-88312380D01*
X93051428Y-87264761D02*
X92813333Y-87979047D01*
X93432380Y-87979047D01*
X93813333Y-88312380D02*
X93813333Y-87312380D01*
X93908571Y-87931428D02*
X94194285Y-88312380D01*
X94194285Y-87645714D02*
X93813333Y-88026666D01*
X94527619Y-87312380D02*
X95194285Y-87312380D01*
X94765714Y-88312380D01*
%TO.C,R1*%
X91273333Y-92122380D02*
X90940000Y-91646190D01*
X90701904Y-92122380D02*
X90701904Y-91122380D01*
X91082857Y-91122380D01*
X91178095Y-91170000D01*
X91225714Y-91217619D01*
X91273333Y-91312857D01*
X91273333Y-91455714D01*
X91225714Y-91550952D01*
X91178095Y-91598571D01*
X91082857Y-91646190D01*
X90701904Y-91646190D01*
X92225714Y-92122380D02*
X91654285Y-92122380D01*
X91940000Y-92122380D02*
X91940000Y-91122380D01*
X91844761Y-91265238D01*
X91749523Y-91360476D01*
X91654285Y-91408095D01*
X93289523Y-91455714D02*
X93289523Y-92122380D01*
X93051428Y-91074761D02*
X92813333Y-91789047D01*
X93432380Y-91789047D01*
X93813333Y-92122380D02*
X93813333Y-91122380D01*
X93908571Y-91741428D02*
X94194285Y-92122380D01*
X94194285Y-91455714D02*
X93813333Y-91836666D01*
X94527619Y-91122380D02*
X95194285Y-91122380D01*
X94765714Y-92122380D01*
%TO.C,Q4*%
X117379761Y-88327619D02*
X117284523Y-88280000D01*
X117189285Y-88184761D01*
X117046428Y-88041904D01*
X116951190Y-87994285D01*
X116855952Y-87994285D01*
X116903571Y-88232380D02*
X116808333Y-88184761D01*
X116713095Y-88089523D01*
X116665476Y-87899047D01*
X116665476Y-87565714D01*
X116713095Y-87375238D01*
X116808333Y-87280000D01*
X116903571Y-87232380D01*
X117094047Y-87232380D01*
X117189285Y-87280000D01*
X117284523Y-87375238D01*
X117332142Y-87565714D01*
X117332142Y-87899047D01*
X117284523Y-88089523D01*
X117189285Y-88184761D01*
X117094047Y-88232380D01*
X116903571Y-88232380D01*
X118189285Y-87565714D02*
X118189285Y-88232380D01*
X117951190Y-87184761D02*
X117713095Y-87899047D01*
X118332142Y-87899047D01*
%TO.C,Q3*%
X117379761Y-79437619D02*
X117284523Y-79390000D01*
X117189285Y-79294761D01*
X117046428Y-79151904D01*
X116951190Y-79104285D01*
X116855952Y-79104285D01*
X116903571Y-79342380D02*
X116808333Y-79294761D01*
X116713095Y-79199523D01*
X116665476Y-79009047D01*
X116665476Y-78675714D01*
X116713095Y-78485238D01*
X116808333Y-78390000D01*
X116903571Y-78342380D01*
X117094047Y-78342380D01*
X117189285Y-78390000D01*
X117284523Y-78485238D01*
X117332142Y-78675714D01*
X117332142Y-79009047D01*
X117284523Y-79199523D01*
X117189285Y-79294761D01*
X117094047Y-79342380D01*
X116903571Y-79342380D01*
X117665476Y-78342380D02*
X118284523Y-78342380D01*
X117951190Y-78723333D01*
X118094047Y-78723333D01*
X118189285Y-78770952D01*
X118236904Y-78818571D01*
X118284523Y-78913809D01*
X118284523Y-79151904D01*
X118236904Y-79247142D01*
X118189285Y-79294761D01*
X118094047Y-79342380D01*
X117808333Y-79342380D01*
X117713095Y-79294761D01*
X117665476Y-79247142D01*
%TO.C,Q2*%
X100869761Y-79437619D02*
X100774523Y-79390000D01*
X100679285Y-79294761D01*
X100536428Y-79151904D01*
X100441190Y-79104285D01*
X100345952Y-79104285D01*
X100393571Y-79342380D02*
X100298333Y-79294761D01*
X100203095Y-79199523D01*
X100155476Y-79009047D01*
X100155476Y-78675714D01*
X100203095Y-78485238D01*
X100298333Y-78390000D01*
X100393571Y-78342380D01*
X100584047Y-78342380D01*
X100679285Y-78390000D01*
X100774523Y-78485238D01*
X100822142Y-78675714D01*
X100822142Y-79009047D01*
X100774523Y-79199523D01*
X100679285Y-79294761D01*
X100584047Y-79342380D01*
X100393571Y-79342380D01*
X101203095Y-78437619D02*
X101250714Y-78390000D01*
X101345952Y-78342380D01*
X101584047Y-78342380D01*
X101679285Y-78390000D01*
X101726904Y-78437619D01*
X101774523Y-78532857D01*
X101774523Y-78628095D01*
X101726904Y-78770952D01*
X101155476Y-79342380D01*
X101774523Y-79342380D01*
%TO.C,Q1*%
X100869761Y-88327619D02*
X100774523Y-88280000D01*
X100679285Y-88184761D01*
X100536428Y-88041904D01*
X100441190Y-87994285D01*
X100345952Y-87994285D01*
X100393571Y-88232380D02*
X100298333Y-88184761D01*
X100203095Y-88089523D01*
X100155476Y-87899047D01*
X100155476Y-87565714D01*
X100203095Y-87375238D01*
X100298333Y-87280000D01*
X100393571Y-87232380D01*
X100584047Y-87232380D01*
X100679285Y-87280000D01*
X100774523Y-87375238D01*
X100822142Y-87565714D01*
X100822142Y-87899047D01*
X100774523Y-88089523D01*
X100679285Y-88184761D01*
X100584047Y-88232380D01*
X100393571Y-88232380D01*
X101774523Y-88232380D02*
X101203095Y-88232380D01*
X101488809Y-88232380D02*
X101488809Y-87232380D01*
X101393571Y-87375238D01*
X101298333Y-87470476D01*
X101203095Y-87518095D01*
%TO.C,J4*%
X120866666Y-94452380D02*
X120866666Y-95166666D01*
X120819047Y-95309523D01*
X120723809Y-95404761D01*
X120580952Y-95452380D01*
X120485714Y-95452380D01*
X121771428Y-94785714D02*
X121771428Y-95452380D01*
X121533333Y-94404761D02*
X121295238Y-95119047D01*
X121914285Y-95119047D01*
%TO.C,J3*%
X100866666Y-94452380D02*
X100866666Y-95166666D01*
X100819047Y-95309523D01*
X100723809Y-95404761D01*
X100580952Y-95452380D01*
X100485714Y-95452380D01*
X101247619Y-94452380D02*
X101866666Y-94452380D01*
X101533333Y-94833333D01*
X101676190Y-94833333D01*
X101771428Y-94880952D01*
X101819047Y-94928571D01*
X101866666Y-95023809D01*
X101866666Y-95261904D01*
X101819047Y-95357142D01*
X101771428Y-95404761D01*
X101676190Y-95452380D01*
X101390476Y-95452380D01*
X101295238Y-95404761D01*
X101247619Y-95357142D01*
%TO.C,J2*%
X87266666Y-94452380D02*
X87266666Y-95166666D01*
X87219047Y-95309523D01*
X87123809Y-95404761D01*
X86980952Y-95452380D01*
X86885714Y-95452380D01*
X87695238Y-94547619D02*
X87742857Y-94500000D01*
X87838095Y-94452380D01*
X88076190Y-94452380D01*
X88171428Y-94500000D01*
X88219047Y-94547619D01*
X88266666Y-94642857D01*
X88266666Y-94738095D01*
X88219047Y-94880952D01*
X87647619Y-95452380D01*
X88266666Y-95452380D01*
%TO.C,J1*%
X73816666Y-94452380D02*
X73816666Y-95166666D01*
X73769047Y-95309523D01*
X73673809Y-95404761D01*
X73530952Y-95452380D01*
X73435714Y-95452380D01*
X74816666Y-95452380D02*
X74245238Y-95452380D01*
X74530952Y-95452380D02*
X74530952Y-94452380D01*
X74435714Y-94595238D01*
X74340476Y-94690476D01*
X74245238Y-94738095D01*
%TD*%
M02*
