%TF.GenerationSoftware,KiCad,Pcbnew,5.1.7*%
%TF.CreationDate,2020-11-17T16:44:46+01:00*%
%TF.ProjectId,pca9632_led_controller,70636139-3633-4325-9f6c-65645f636f6e,rev?*%
%TF.SameCoordinates,Original*%
%TF.FileFunction,Soldermask,Bot*%
%TF.FilePolarity,Negative*%
%FSLAX46Y46*%
G04 Gerber Fmt 4.6, Leading zero omitted, Abs format (unit mm)*
G04 Created by KiCad (PCBNEW 5.1.7) date 2020-11-17 16:44:46*
%MOMM*%
%LPD*%
G01*
G04 APERTURE LIST*
%ADD10C,3.200000*%
%ADD11O,1.905000X2.000000*%
%ADD12R,1.905000X2.000000*%
%ADD13O,1.500000X2.020000*%
%ADD14C,3.000000*%
G04 APERTURE END LIST*
D10*
%TO.C,REF\u002A\u002A*%
X70500000Y-92000000D03*
%TD*%
%TO.C,REF\u002A\u002A*%
X70500000Y-81500000D03*
%TD*%
%TO.C,REF\u002A\u002A*%
X127000000Y-92000000D03*
%TD*%
%TO.C,REF\u002A\u002A*%
X127000000Y-81500000D03*
%TD*%
D11*
%TO.C,Q4*%
X120015000Y-92050000D03*
X117475000Y-92050000D03*
D12*
X114935000Y-92050000D03*
%TD*%
D11*
%TO.C,Q3*%
X120015000Y-83160000D03*
X117475000Y-83160000D03*
D12*
X114935000Y-83160000D03*
%TD*%
D11*
%TO.C,Q2*%
X103505000Y-83160000D03*
X100965000Y-83160000D03*
D12*
X98425000Y-83160000D03*
%TD*%
D11*
%TO.C,Q1*%
X103505000Y-92050000D03*
X100965000Y-92050000D03*
D12*
X98425000Y-92050000D03*
%TD*%
D13*
%TO.C,J4*%
X114675000Y-97325000D03*
X117675000Y-97325000D03*
X120675000Y-97325000D03*
X123675000Y-97325000D03*
G36*
G01*
X127425000Y-96565000D02*
X127425000Y-98085000D01*
G75*
G02*
X127175000Y-98335000I-250000J0D01*
G01*
X126175000Y-98335000D01*
G75*
G02*
X125925000Y-98085000I0J250000D01*
G01*
X125925000Y-96565000D01*
G75*
G02*
X126175000Y-96315000I250000J0D01*
G01*
X127175000Y-96315000D01*
G75*
G02*
X127425000Y-96565000I0J-250000D01*
G01*
G37*
D14*
X116825000Y-101645000D03*
X124525000Y-101645000D03*
%TD*%
D13*
%TO.C,J3*%
X95025000Y-97325000D03*
X98025000Y-97325000D03*
X101025000Y-97325000D03*
X104025000Y-97325000D03*
G36*
G01*
X107775000Y-96565000D02*
X107775000Y-98085000D01*
G75*
G02*
X107525000Y-98335000I-250000J0D01*
G01*
X106525000Y-98335000D01*
G75*
G02*
X106275000Y-98085000I0J250000D01*
G01*
X106275000Y-96565000D01*
G75*
G02*
X106525000Y-96315000I250000J0D01*
G01*
X107525000Y-96315000D01*
G75*
G02*
X107775000Y-96565000I0J-250000D01*
G01*
G37*
D14*
X97175000Y-101645000D03*
X104875000Y-101645000D03*
%TD*%
D13*
%TO.C,J2*%
X84375000Y-97325000D03*
G36*
G01*
X88125000Y-96565000D02*
X88125000Y-98085000D01*
G75*
G02*
X87875000Y-98335000I-250000J0D01*
G01*
X86875000Y-98335000D01*
G75*
G02*
X86625000Y-98085000I0J250000D01*
G01*
X86625000Y-96565000D01*
G75*
G02*
X86875000Y-96315000I250000J0D01*
G01*
X87875000Y-96315000D01*
G75*
G02*
X88125000Y-96565000I0J-250000D01*
G01*
G37*
D14*
X85875000Y-101645000D03*
%TD*%
D13*
%TO.C,J1*%
X70725000Y-97325000D03*
X73725000Y-97325000D03*
G36*
G01*
X77475000Y-96565000D02*
X77475000Y-98085000D01*
G75*
G02*
X77225000Y-98335000I-250000J0D01*
G01*
X76225000Y-98335000D01*
G75*
G02*
X75975000Y-98085000I0J250000D01*
G01*
X75975000Y-96565000D01*
G75*
G02*
X76225000Y-96315000I250000J0D01*
G01*
X77225000Y-96315000D01*
G75*
G02*
X77475000Y-96565000I0J-250000D01*
G01*
G37*
D14*
X73725000Y-101645000D03*
%TD*%
M02*
