%TF.GenerationSoftware,KiCad,Pcbnew,5.1.7*%
%TF.CreationDate,2020-11-17T16:44:46+01:00*%
%TF.ProjectId,pca9632_led_controller,70636139-3633-4325-9f6c-65645f636f6e,rev?*%
%TF.SameCoordinates,Original*%
%TF.FileFunction,Copper,L1,Top*%
%TF.FilePolarity,Positive*%
%FSLAX46Y46*%
G04 Gerber Fmt 4.6, Leading zero omitted, Abs format (unit mm)*
G04 Created by KiCad (PCBNEW 5.1.7) date 2020-11-17 16:44:46*
%MOMM*%
%LPD*%
G01*
G04 APERTURE LIST*
%TA.AperFunction,SMDPad,CuDef*%
%ADD10R,0.300000X1.440000*%
%TD*%
%TA.AperFunction,ComponentPad*%
%ADD11O,1.905000X2.000000*%
%TD*%
%TA.AperFunction,ComponentPad*%
%ADD12R,1.905000X2.000000*%
%TD*%
%TA.AperFunction,ComponentPad*%
%ADD13O,1.500000X2.020000*%
%TD*%
%TA.AperFunction,ViaPad*%
%ADD14C,0.800000*%
%TD*%
%TA.AperFunction,Conductor*%
%ADD15C,0.250000*%
%TD*%
%TA.AperFunction,Conductor*%
%ADD16C,0.400000*%
%TD*%
%TA.AperFunction,Conductor*%
%ADD17C,1.000000*%
%TD*%
G04 APERTURE END LIST*
D10*
%TO.P,U1,10*%
%TO.N,+5V*%
X77740000Y-85460000D03*
%TO.P,U1,9*%
%TO.N,Net-(J1-Pad3)*%
X78240000Y-85460000D03*
%TO.P,U1,8*%
%TO.N,Net-(J1-Pad2)*%
X78740000Y-85460000D03*
%TO.P,U1,7*%
%TO.N,Net-(R11-Pad2)*%
X79240000Y-85460000D03*
%TO.P,U1,6*%
%TO.N,GND*%
X79740000Y-85460000D03*
%TO.P,U1,5*%
%TO.N,Net-(R10-Pad1)*%
X79740000Y-89750000D03*
%TO.P,U1,4*%
%TO.N,Net-(R7-Pad1)*%
X79240000Y-89750000D03*
%TO.P,U1,3*%
%TO.N,Net-(R5-Pad1)*%
X78740000Y-89750000D03*
%TO.P,U1,2*%
%TO.N,Net-(R3-Pad1)*%
X78240000Y-89750000D03*
%TO.P,U1,1*%
%TO.N,Net-(R1-Pad1)*%
X77740000Y-89750000D03*
%TD*%
%TO.P,R12,2*%
%TO.N,GND*%
%TA.AperFunction,SMDPad,CuDef*%
G36*
G01*
X85274999Y-84830000D02*
X86175001Y-84830000D01*
G75*
G02*
X86425000Y-85079999I0J-249999D01*
G01*
X86425000Y-85780001D01*
G75*
G02*
X86175001Y-86030000I-249999J0D01*
G01*
X85274999Y-86030000D01*
G75*
G02*
X85025000Y-85780001I0J249999D01*
G01*
X85025000Y-85079999D01*
G75*
G02*
X85274999Y-84830000I249999J0D01*
G01*
G37*
%TD.AperFunction*%
%TO.P,R12,1*%
%TO.N,Net-(R11-Pad2)*%
%TA.AperFunction,SMDPad,CuDef*%
G36*
G01*
X85274999Y-82830000D02*
X86175001Y-82830000D01*
G75*
G02*
X86425000Y-83079999I0J-249999D01*
G01*
X86425000Y-83780001D01*
G75*
G02*
X86175001Y-84030000I-249999J0D01*
G01*
X85274999Y-84030000D01*
G75*
G02*
X85025000Y-83780001I0J249999D01*
G01*
X85025000Y-83079999D01*
G75*
G02*
X85274999Y-82830000I249999J0D01*
G01*
G37*
%TD.AperFunction*%
%TD*%
%TO.P,R11,2*%
%TO.N,Net-(R11-Pad2)*%
%TA.AperFunction,SMDPad,CuDef*%
G36*
G01*
X83635001Y-84030000D02*
X82734999Y-84030000D01*
G75*
G02*
X82485000Y-83780001I0J249999D01*
G01*
X82485000Y-83079999D01*
G75*
G02*
X82734999Y-82830000I249999J0D01*
G01*
X83635001Y-82830000D01*
G75*
G02*
X83885000Y-83079999I0J-249999D01*
G01*
X83885000Y-83780001D01*
G75*
G02*
X83635001Y-84030000I-249999J0D01*
G01*
G37*
%TD.AperFunction*%
%TO.P,R11,1*%
%TO.N,+5V*%
%TA.AperFunction,SMDPad,CuDef*%
G36*
G01*
X83635001Y-86030000D02*
X82734999Y-86030000D01*
G75*
G02*
X82485000Y-85780001I0J249999D01*
G01*
X82485000Y-85079999D01*
G75*
G02*
X82734999Y-84830000I249999J0D01*
G01*
X83635001Y-84830000D01*
G75*
G02*
X83885000Y-85079999I0J-249999D01*
G01*
X83885000Y-85780001D01*
G75*
G02*
X83635001Y-86030000I-249999J0D01*
G01*
G37*
%TD.AperFunction*%
%TD*%
%TO.P,R10,2*%
%TO.N,GND*%
%TA.AperFunction,SMDPad,CuDef*%
G36*
G01*
X86175001Y-89745000D02*
X85274999Y-89745000D01*
G75*
G02*
X85025000Y-89495001I0J249999D01*
G01*
X85025000Y-88794999D01*
G75*
G02*
X85274999Y-88545000I249999J0D01*
G01*
X86175001Y-88545000D01*
G75*
G02*
X86425000Y-88794999I0J-249999D01*
G01*
X86425000Y-89495001D01*
G75*
G02*
X86175001Y-89745000I-249999J0D01*
G01*
G37*
%TD.AperFunction*%
%TO.P,R10,1*%
%TO.N,Net-(R10-Pad1)*%
%TA.AperFunction,SMDPad,CuDef*%
G36*
G01*
X86175001Y-91745000D02*
X85274999Y-91745000D01*
G75*
G02*
X85025000Y-91495001I0J249999D01*
G01*
X85025000Y-90794999D01*
G75*
G02*
X85274999Y-90545000I249999J0D01*
G01*
X86175001Y-90545000D01*
G75*
G02*
X86425000Y-90794999I0J-249999D01*
G01*
X86425000Y-91495001D01*
G75*
G02*
X86175001Y-91745000I-249999J0D01*
G01*
G37*
%TD.AperFunction*%
%TD*%
%TO.P,R9,2*%
%TO.N,Net-(R10-Pad1)*%
%TA.AperFunction,SMDPad,CuDef*%
G36*
G01*
X82734999Y-90545000D02*
X83635001Y-90545000D01*
G75*
G02*
X83885000Y-90794999I0J-249999D01*
G01*
X83885000Y-91495001D01*
G75*
G02*
X83635001Y-91745000I-249999J0D01*
G01*
X82734999Y-91745000D01*
G75*
G02*
X82485000Y-91495001I0J249999D01*
G01*
X82485000Y-90794999D01*
G75*
G02*
X82734999Y-90545000I249999J0D01*
G01*
G37*
%TD.AperFunction*%
%TO.P,R9,1*%
%TO.N,+5V*%
%TA.AperFunction,SMDPad,CuDef*%
G36*
G01*
X82734999Y-88545000D02*
X83635001Y-88545000D01*
G75*
G02*
X83885000Y-88794999I0J-249999D01*
G01*
X83885000Y-89495001D01*
G75*
G02*
X83635001Y-89745000I-249999J0D01*
G01*
X82734999Y-89745000D01*
G75*
G02*
X82485000Y-89495001I0J249999D01*
G01*
X82485000Y-88794999D01*
G75*
G02*
X82734999Y-88545000I249999J0D01*
G01*
G37*
%TD.AperFunction*%
%TD*%
%TO.P,R8,2*%
%TO.N,Net-(Q4-Pad1)*%
%TA.AperFunction,SMDPad,CuDef*%
G36*
G01*
X110255000Y-89960001D02*
X110255000Y-89059999D01*
G75*
G02*
X110504999Y-88810000I249999J0D01*
G01*
X111205001Y-88810000D01*
G75*
G02*
X111455000Y-89059999I0J-249999D01*
G01*
X111455000Y-89960001D01*
G75*
G02*
X111205001Y-90210000I-249999J0D01*
G01*
X110504999Y-90210000D01*
G75*
G02*
X110255000Y-89960001I0J249999D01*
G01*
G37*
%TD.AperFunction*%
%TO.P,R8,1*%
%TO.N,Net-(R7-Pad1)*%
%TA.AperFunction,SMDPad,CuDef*%
G36*
G01*
X108255000Y-89960001D02*
X108255000Y-89059999D01*
G75*
G02*
X108504999Y-88810000I249999J0D01*
G01*
X109205001Y-88810000D01*
G75*
G02*
X109455000Y-89059999I0J-249999D01*
G01*
X109455000Y-89960001D01*
G75*
G02*
X109205001Y-90210000I-249999J0D01*
G01*
X108504999Y-90210000D01*
G75*
G02*
X108255000Y-89960001I0J249999D01*
G01*
G37*
%TD.AperFunction*%
%TD*%
%TO.P,R7,2*%
%TO.N,GND*%
%TA.AperFunction,SMDPad,CuDef*%
G36*
G01*
X109455000Y-92869999D02*
X109455000Y-93770001D01*
G75*
G02*
X109205001Y-94020000I-249999J0D01*
G01*
X108504999Y-94020000D01*
G75*
G02*
X108255000Y-93770001I0J249999D01*
G01*
X108255000Y-92869999D01*
G75*
G02*
X108504999Y-92620000I249999J0D01*
G01*
X109205001Y-92620000D01*
G75*
G02*
X109455000Y-92869999I0J-249999D01*
G01*
G37*
%TD.AperFunction*%
%TO.P,R7,1*%
%TO.N,Net-(R7-Pad1)*%
%TA.AperFunction,SMDPad,CuDef*%
G36*
G01*
X111455000Y-92869999D02*
X111455000Y-93770001D01*
G75*
G02*
X111205001Y-94020000I-249999J0D01*
G01*
X110504999Y-94020000D01*
G75*
G02*
X110255000Y-93770001I0J249999D01*
G01*
X110255000Y-92869999D01*
G75*
G02*
X110504999Y-92620000I249999J0D01*
G01*
X111205001Y-92620000D01*
G75*
G02*
X111455000Y-92869999I0J-249999D01*
G01*
G37*
%TD.AperFunction*%
%TD*%
%TO.P,R6,2*%
%TO.N,Net-(Q3-Pad1)*%
%TA.AperFunction,SMDPad,CuDef*%
G36*
G01*
X110255000Y-82340001D02*
X110255000Y-81439999D01*
G75*
G02*
X110504999Y-81190000I249999J0D01*
G01*
X111205001Y-81190000D01*
G75*
G02*
X111455000Y-81439999I0J-249999D01*
G01*
X111455000Y-82340001D01*
G75*
G02*
X111205001Y-82590000I-249999J0D01*
G01*
X110504999Y-82590000D01*
G75*
G02*
X110255000Y-82340001I0J249999D01*
G01*
G37*
%TD.AperFunction*%
%TO.P,R6,1*%
%TO.N,Net-(R5-Pad1)*%
%TA.AperFunction,SMDPad,CuDef*%
G36*
G01*
X108255000Y-82340001D02*
X108255000Y-81439999D01*
G75*
G02*
X108504999Y-81190000I249999J0D01*
G01*
X109205001Y-81190000D01*
G75*
G02*
X109455000Y-81439999I0J-249999D01*
G01*
X109455000Y-82340001D01*
G75*
G02*
X109205001Y-82590000I-249999J0D01*
G01*
X108504999Y-82590000D01*
G75*
G02*
X108255000Y-82340001I0J249999D01*
G01*
G37*
%TD.AperFunction*%
%TD*%
%TO.P,R5,2*%
%TO.N,GND*%
%TA.AperFunction,SMDPad,CuDef*%
G36*
G01*
X109455000Y-85249999D02*
X109455000Y-86150001D01*
G75*
G02*
X109205001Y-86400000I-249999J0D01*
G01*
X108504999Y-86400000D01*
G75*
G02*
X108255000Y-86150001I0J249999D01*
G01*
X108255000Y-85249999D01*
G75*
G02*
X108504999Y-85000000I249999J0D01*
G01*
X109205001Y-85000000D01*
G75*
G02*
X109455000Y-85249999I0J-249999D01*
G01*
G37*
%TD.AperFunction*%
%TO.P,R5,1*%
%TO.N,Net-(R5-Pad1)*%
%TA.AperFunction,SMDPad,CuDef*%
G36*
G01*
X111455000Y-85249999D02*
X111455000Y-86150001D01*
G75*
G02*
X111205001Y-86400000I-249999J0D01*
G01*
X110504999Y-86400000D01*
G75*
G02*
X110255000Y-86150001I0J249999D01*
G01*
X110255000Y-85249999D01*
G75*
G02*
X110504999Y-85000000I249999J0D01*
G01*
X111205001Y-85000000D01*
G75*
G02*
X111455000Y-85249999I0J-249999D01*
G01*
G37*
%TD.AperFunction*%
%TD*%
%TO.P,R4,2*%
%TO.N,Net-(Q2-Pad1)*%
%TA.AperFunction,SMDPad,CuDef*%
G36*
G01*
X93745000Y-82340001D02*
X93745000Y-81439999D01*
G75*
G02*
X93994999Y-81190000I249999J0D01*
G01*
X94695001Y-81190000D01*
G75*
G02*
X94945000Y-81439999I0J-249999D01*
G01*
X94945000Y-82340001D01*
G75*
G02*
X94695001Y-82590000I-249999J0D01*
G01*
X93994999Y-82590000D01*
G75*
G02*
X93745000Y-82340001I0J249999D01*
G01*
G37*
%TD.AperFunction*%
%TO.P,R4,1*%
%TO.N,Net-(R3-Pad1)*%
%TA.AperFunction,SMDPad,CuDef*%
G36*
G01*
X91745000Y-82340001D02*
X91745000Y-81439999D01*
G75*
G02*
X91994999Y-81190000I249999J0D01*
G01*
X92695001Y-81190000D01*
G75*
G02*
X92945000Y-81439999I0J-249999D01*
G01*
X92945000Y-82340001D01*
G75*
G02*
X92695001Y-82590000I-249999J0D01*
G01*
X91994999Y-82590000D01*
G75*
G02*
X91745000Y-82340001I0J249999D01*
G01*
G37*
%TD.AperFunction*%
%TD*%
%TO.P,R3,2*%
%TO.N,GND*%
%TA.AperFunction,SMDPad,CuDef*%
G36*
G01*
X92945000Y-85249999D02*
X92945000Y-86150001D01*
G75*
G02*
X92695001Y-86400000I-249999J0D01*
G01*
X91994999Y-86400000D01*
G75*
G02*
X91745000Y-86150001I0J249999D01*
G01*
X91745000Y-85249999D01*
G75*
G02*
X91994999Y-85000000I249999J0D01*
G01*
X92695001Y-85000000D01*
G75*
G02*
X92945000Y-85249999I0J-249999D01*
G01*
G37*
%TD.AperFunction*%
%TO.P,R3,1*%
%TO.N,Net-(R3-Pad1)*%
%TA.AperFunction,SMDPad,CuDef*%
G36*
G01*
X94945000Y-85249999D02*
X94945000Y-86150001D01*
G75*
G02*
X94695001Y-86400000I-249999J0D01*
G01*
X93994999Y-86400000D01*
G75*
G02*
X93745000Y-86150001I0J249999D01*
G01*
X93745000Y-85249999D01*
G75*
G02*
X93994999Y-85000000I249999J0D01*
G01*
X94695001Y-85000000D01*
G75*
G02*
X94945000Y-85249999I0J-249999D01*
G01*
G37*
%TD.AperFunction*%
%TD*%
%TO.P,R2,2*%
%TO.N,Net-(Q1-Pad1)*%
%TA.AperFunction,SMDPad,CuDef*%
G36*
G01*
X93745000Y-89960001D02*
X93745000Y-89059999D01*
G75*
G02*
X93994999Y-88810000I249999J0D01*
G01*
X94695001Y-88810000D01*
G75*
G02*
X94945000Y-89059999I0J-249999D01*
G01*
X94945000Y-89960001D01*
G75*
G02*
X94695001Y-90210000I-249999J0D01*
G01*
X93994999Y-90210000D01*
G75*
G02*
X93745000Y-89960001I0J249999D01*
G01*
G37*
%TD.AperFunction*%
%TO.P,R2,1*%
%TO.N,Net-(R1-Pad1)*%
%TA.AperFunction,SMDPad,CuDef*%
G36*
G01*
X91745000Y-89960001D02*
X91745000Y-89059999D01*
G75*
G02*
X91994999Y-88810000I249999J0D01*
G01*
X92695001Y-88810000D01*
G75*
G02*
X92945000Y-89059999I0J-249999D01*
G01*
X92945000Y-89960001D01*
G75*
G02*
X92695001Y-90210000I-249999J0D01*
G01*
X91994999Y-90210000D01*
G75*
G02*
X91745000Y-89960001I0J249999D01*
G01*
G37*
%TD.AperFunction*%
%TD*%
%TO.P,R1,2*%
%TO.N,GND*%
%TA.AperFunction,SMDPad,CuDef*%
G36*
G01*
X92945000Y-92869999D02*
X92945000Y-93770001D01*
G75*
G02*
X92695001Y-94020000I-249999J0D01*
G01*
X91994999Y-94020000D01*
G75*
G02*
X91745000Y-93770001I0J249999D01*
G01*
X91745000Y-92869999D01*
G75*
G02*
X91994999Y-92620000I249999J0D01*
G01*
X92695001Y-92620000D01*
G75*
G02*
X92945000Y-92869999I0J-249999D01*
G01*
G37*
%TD.AperFunction*%
%TO.P,R1,1*%
%TO.N,Net-(R1-Pad1)*%
%TA.AperFunction,SMDPad,CuDef*%
G36*
G01*
X94945000Y-92869999D02*
X94945000Y-93770001D01*
G75*
G02*
X94695001Y-94020000I-249999J0D01*
G01*
X93994999Y-94020000D01*
G75*
G02*
X93745000Y-93770001I0J249999D01*
G01*
X93745000Y-92869999D01*
G75*
G02*
X93994999Y-92620000I249999J0D01*
G01*
X94695001Y-92620000D01*
G75*
G02*
X94945000Y-92869999I0J-249999D01*
G01*
G37*
%TD.AperFunction*%
%TD*%
D11*
%TO.P,Q4,3*%
%TO.N,GND*%
X120015000Y-92050000D03*
%TO.P,Q4,2*%
%TO.N,Net-(J3-Pad5)*%
X117475000Y-92050000D03*
D12*
%TO.P,Q4,1*%
%TO.N,Net-(Q4-Pad1)*%
X114935000Y-92050000D03*
%TD*%
D11*
%TO.P,Q3,3*%
%TO.N,GND*%
X120015000Y-83160000D03*
%TO.P,Q3,2*%
%TO.N,Net-(J3-Pad4)*%
X117475000Y-83160000D03*
D12*
%TO.P,Q3,1*%
%TO.N,Net-(Q3-Pad1)*%
X114935000Y-83160000D03*
%TD*%
D11*
%TO.P,Q2,3*%
%TO.N,GND*%
X103505000Y-83160000D03*
%TO.P,Q2,2*%
%TO.N,Net-(J3-Pad3)*%
X100965000Y-83160000D03*
D12*
%TO.P,Q2,1*%
%TO.N,Net-(Q2-Pad1)*%
X98425000Y-83160000D03*
%TD*%
D11*
%TO.P,Q1,3*%
%TO.N,GND*%
X103505000Y-92050000D03*
%TO.P,Q1,2*%
%TO.N,Net-(J3-Pad2)*%
X100965000Y-92050000D03*
D12*
%TO.P,Q1,1*%
%TO.N,Net-(Q1-Pad1)*%
X98425000Y-92050000D03*
%TD*%
D13*
%TO.P,J4,5*%
%TO.N,Net-(J3-Pad5)*%
X114675000Y-97325000D03*
%TO.P,J4,4*%
%TO.N,Net-(J3-Pad4)*%
X117675000Y-97325000D03*
%TO.P,J4,3*%
%TO.N,Net-(J3-Pad3)*%
X120675000Y-97325000D03*
%TO.P,J4,2*%
%TO.N,Net-(J3-Pad2)*%
X123675000Y-97325000D03*
%TO.P,J4,1*%
%TO.N,VDD*%
%TA.AperFunction,ComponentPad*%
G36*
G01*
X127425000Y-96565000D02*
X127425000Y-98085000D01*
G75*
G02*
X127175000Y-98335000I-250000J0D01*
G01*
X126175000Y-98335000D01*
G75*
G02*
X125925000Y-98085000I0J250000D01*
G01*
X125925000Y-96565000D01*
G75*
G02*
X126175000Y-96315000I250000J0D01*
G01*
X127175000Y-96315000D01*
G75*
G02*
X127425000Y-96565000I0J-250000D01*
G01*
G37*
%TD.AperFunction*%
%TD*%
%TO.P,J3,5*%
%TO.N,Net-(J3-Pad5)*%
X95025000Y-97325000D03*
%TO.P,J3,4*%
%TO.N,Net-(J3-Pad4)*%
X98025000Y-97325000D03*
%TO.P,J3,3*%
%TO.N,Net-(J3-Pad3)*%
X101025000Y-97325000D03*
%TO.P,J3,2*%
%TO.N,Net-(J3-Pad2)*%
X104025000Y-97325000D03*
%TO.P,J3,1*%
%TO.N,VDD*%
%TA.AperFunction,ComponentPad*%
G36*
G01*
X107775000Y-96565000D02*
X107775000Y-98085000D01*
G75*
G02*
X107525000Y-98335000I-250000J0D01*
G01*
X106525000Y-98335000D01*
G75*
G02*
X106275000Y-98085000I0J250000D01*
G01*
X106275000Y-96565000D01*
G75*
G02*
X106525000Y-96315000I250000J0D01*
G01*
X107525000Y-96315000D01*
G75*
G02*
X107775000Y-96565000I0J-250000D01*
G01*
G37*
%TD.AperFunction*%
%TD*%
%TO.P,J2,2*%
%TO.N,GND*%
X84375000Y-97325000D03*
%TO.P,J2,1*%
%TO.N,VDD*%
%TA.AperFunction,ComponentPad*%
G36*
G01*
X88125000Y-96565000D02*
X88125000Y-98085000D01*
G75*
G02*
X87875000Y-98335000I-250000J0D01*
G01*
X86875000Y-98335000D01*
G75*
G02*
X86625000Y-98085000I0J250000D01*
G01*
X86625000Y-96565000D01*
G75*
G02*
X86875000Y-96315000I250000J0D01*
G01*
X87875000Y-96315000D01*
G75*
G02*
X88125000Y-96565000I0J-250000D01*
G01*
G37*
%TD.AperFunction*%
%TD*%
%TO.P,J1,3*%
%TO.N,Net-(J1-Pad3)*%
X70725000Y-97325000D03*
%TO.P,J1,2*%
%TO.N,Net-(J1-Pad2)*%
X73725000Y-97325000D03*
%TO.P,J1,1*%
%TO.N,+5V*%
%TA.AperFunction,ComponentPad*%
G36*
G01*
X77475000Y-96565000D02*
X77475000Y-98085000D01*
G75*
G02*
X77225000Y-98335000I-250000J0D01*
G01*
X76225000Y-98335000D01*
G75*
G02*
X75975000Y-98085000I0J250000D01*
G01*
X75975000Y-96565000D01*
G75*
G02*
X76225000Y-96315000I250000J0D01*
G01*
X77225000Y-96315000D01*
G75*
G02*
X77475000Y-96565000I0J-250000D01*
G01*
G37*
%TD.AperFunction*%
%TD*%
D14*
%TO.N,Net-(J1-Pad3)*%
X76200000Y-83795000D03*
%TO.N,Net-(J1-Pad2)*%
X76200000Y-82525000D03*
%TO.N,GND*%
X80010000Y-83795000D03*
X87630000Y-88240000D03*
X86995000Y-81890000D03*
%TO.N,Net-(Q3-Pad1)*%
X112395000Y-81890000D03*
%TD*%
D15*
%TO.N,Net-(J1-Pad3)*%
X77545000Y-83795000D02*
X76200000Y-83795000D01*
X78240000Y-84490000D02*
X77545000Y-83795000D01*
X78240000Y-85460000D02*
X78240000Y-84490000D01*
%TO.N,Net-(J1-Pad2)*%
X78105000Y-82525000D02*
X76200000Y-82525000D01*
X78740000Y-83160000D02*
X78105000Y-82525000D01*
X78740000Y-85460000D02*
X78740000Y-83160000D01*
%TO.N,+5V*%
X77740000Y-85460000D02*
X75805000Y-85460000D01*
X83185000Y-86970000D02*
X83185000Y-89145000D01*
X83185000Y-85430000D02*
X83185000Y-86970000D01*
X83185000Y-86970000D02*
X86995000Y-86970000D01*
X87630000Y-86970000D02*
X88184970Y-86415030D01*
X83185000Y-86970000D02*
X87630000Y-86970000D01*
X88184970Y-81174970D02*
X88184970Y-82605030D01*
X88184970Y-82605030D02*
X88184970Y-81809970D01*
X87630000Y-80620000D02*
X88184970Y-81174970D01*
X88184970Y-86415030D02*
X88184970Y-82605030D01*
D16*
X76316000Y-96916000D02*
X76725000Y-97325000D01*
X76316000Y-85460000D02*
X76316000Y-96916000D01*
X76316000Y-85460000D02*
X77689999Y-85460000D01*
D15*
X76316000Y-85460000D02*
X75046000Y-85460000D01*
X75046000Y-85460000D02*
X74676000Y-85090000D01*
X74676000Y-81992000D02*
X76048000Y-80620000D01*
X74676000Y-85090000D02*
X74676000Y-81992000D01*
X76048000Y-80620000D02*
X87630000Y-80620000D01*
%TO.N,GND*%
X103505000Y-83160000D02*
X104775000Y-83160000D01*
X107315000Y-85700000D02*
X108855000Y-85700000D01*
X104775000Y-83160000D02*
X107315000Y-85700000D01*
X103505000Y-92050000D02*
X106680000Y-92050000D01*
X107950000Y-93320000D02*
X108855000Y-93320000D01*
X106680000Y-92050000D02*
X107950000Y-93320000D01*
X92345000Y-93320000D02*
X91440000Y-93320000D01*
X91419990Y-93299990D02*
X90784990Y-93299990D01*
X91440000Y-93320000D02*
X91419990Y-93299990D01*
X90784990Y-93299990D02*
X90170000Y-92685000D01*
X90170000Y-92685000D02*
X90170000Y-86970000D01*
X91440000Y-85700000D02*
X92345000Y-85700000D01*
X90170000Y-86970000D02*
X91440000Y-85700000D01*
X92345000Y-85700000D02*
X92345000Y-87240000D01*
X92345000Y-87240000D02*
X92710000Y-87605000D01*
X92710000Y-87605000D02*
X102235000Y-87605000D01*
X103505000Y-86335000D02*
X103505000Y-83160000D01*
X102235000Y-87605000D02*
X103505000Y-86335000D01*
X85725000Y-89145000D02*
X86725000Y-89145000D01*
X86725000Y-89145000D02*
X87630000Y-88240000D01*
X85725000Y-85430000D02*
X86630000Y-85430000D01*
X86630000Y-85430000D02*
X86995000Y-85065000D01*
X86995000Y-85065000D02*
X86995000Y-82525000D01*
X79740000Y-85460000D02*
X79740000Y-84065000D01*
X79740000Y-84065000D02*
X80010000Y-83795000D01*
X80010000Y-83795000D02*
X80010000Y-83795000D01*
X87630000Y-88240000D02*
X87630000Y-88240000D01*
X86995000Y-82525000D02*
X86995000Y-81890000D01*
X86995000Y-81890000D02*
X86995000Y-81890000D01*
D17*
%TO.N,VDD*%
X107025000Y-99151000D02*
X107696000Y-99822000D01*
X107025000Y-97325000D02*
X107025000Y-99151000D01*
X126675000Y-97325000D02*
X126675000Y-98735000D01*
X126675000Y-98735000D02*
X127762000Y-99822000D01*
X127762000Y-99822000D02*
X127762000Y-102212000D01*
X105954999Y-103845001D02*
X107696000Y-102104000D01*
X107696000Y-99822000D02*
X107696000Y-102104000D01*
X90495001Y-103845001D02*
X88900000Y-102250000D01*
X105954999Y-103845001D02*
X90495001Y-103845001D01*
X88900000Y-98850000D02*
X87375000Y-97325000D01*
X88900000Y-102250000D02*
X88900000Y-98850000D01*
X126128999Y-103845001D02*
X127762000Y-102212000D01*
X105954999Y-103845001D02*
X126128999Y-103845001D01*
%TO.N,Net-(J3-Pad5)*%
X114675000Y-97325000D02*
X114675000Y-95383000D01*
X114675000Y-95383000D02*
X115824000Y-94234000D01*
X115824000Y-94234000D02*
X116840000Y-94234000D01*
X117475000Y-93599000D02*
X117475000Y-92050000D01*
X116840000Y-94234000D02*
X117475000Y-93599000D01*
%TO.N,Net-(J3-Pad4)*%
X117675000Y-96325000D02*
X117675000Y-97325000D01*
X122500000Y-95500000D02*
X118500000Y-95500000D01*
X118500000Y-95500000D02*
X117675000Y-96325000D01*
X123500000Y-87000000D02*
X123500000Y-94500000D01*
X123500000Y-94500000D02*
X122500000Y-95500000D01*
X122525000Y-86025000D02*
X123500000Y-87000000D01*
X118475000Y-86025000D02*
X122525000Y-86025000D01*
X117475000Y-85025000D02*
X118475000Y-86025000D01*
X117475000Y-83160000D02*
X117475000Y-85025000D01*
%TO.N,Net-(J3-Pad2)*%
X100965000Y-92050000D02*
X100965000Y-92583000D01*
X104025000Y-95643000D02*
X104025000Y-97325000D01*
X100965000Y-92583000D02*
X104025000Y-95643000D01*
X123675000Y-98575000D02*
X123675000Y-97325000D01*
X108712000Y-95504000D02*
X109474000Y-96266000D01*
X104648000Y-95504000D02*
X108712000Y-95504000D01*
X104025000Y-96127000D02*
X104648000Y-95504000D01*
X104025000Y-97325000D02*
X104025000Y-96127000D01*
X111548000Y-99200000D02*
X109474000Y-97126000D01*
X123050000Y-99200000D02*
X111548000Y-99200000D01*
X109474000Y-96266000D02*
X109474000Y-97126000D01*
X123050000Y-99200000D02*
X123675000Y-98575000D01*
D15*
%TO.N,Net-(Q1-Pad1)*%
X98155000Y-91780000D02*
X98425000Y-92050000D01*
X94345000Y-89510000D02*
X97155000Y-89510000D01*
X98425000Y-90780000D02*
X98425000Y-92050000D01*
X97155000Y-89510000D02*
X98425000Y-90780000D01*
%TO.N,Net-(Q2-Pad1)*%
X98155000Y-82890000D02*
X98425000Y-83160000D01*
X97155000Y-81890000D02*
X98425000Y-83160000D01*
X94345000Y-81890000D02*
X97155000Y-81890000D01*
%TO.N,Net-(Q3-Pad1)*%
X114665000Y-82890000D02*
X114935000Y-83160000D01*
X110855000Y-81890000D02*
X112395000Y-81890000D01*
%TO.N,Net-(Q4-Pad1)*%
X114665000Y-91780000D02*
X114935000Y-92050000D01*
X112395000Y-89510000D02*
X114935000Y-92050000D01*
X110855000Y-89510000D02*
X112395000Y-89510000D01*
%TO.N,Net-(R1-Pad1)*%
X92345000Y-89510000D02*
X92345000Y-90415000D01*
X94345000Y-92415000D02*
X94345000Y-93320000D01*
X92345000Y-90415000D02*
X94345000Y-92415000D01*
X91012028Y-93908028D02*
X91551000Y-94447000D01*
X79434798Y-93908028D02*
X91012028Y-93908028D01*
X77740000Y-92213230D02*
X79434798Y-93908028D01*
X77740000Y-89750000D02*
X77740000Y-92213230D01*
X94345000Y-93320000D02*
X94345000Y-93939000D01*
X94345000Y-93939000D02*
X93837000Y-94447000D01*
X91551000Y-94447000D02*
X93837000Y-94447000D01*
%TO.N,Net-(R3-Pad1)*%
X94345000Y-84795000D02*
X94345000Y-85700000D01*
X92345000Y-82795000D02*
X94345000Y-84795000D01*
X92345000Y-81890000D02*
X92345000Y-82795000D01*
X89535000Y-84700000D02*
X92345000Y-81890000D01*
X89535000Y-92939000D02*
X89535000Y-84700000D01*
X89015981Y-93458019D02*
X89535000Y-92939000D01*
X79621199Y-93458019D02*
X89015981Y-93458019D01*
X78240000Y-92076820D02*
X79621199Y-93458019D01*
X78240000Y-89750000D02*
X78240000Y-92076820D01*
%TO.N,Net-(R5-Pad1)*%
X108855000Y-81890000D02*
X108855000Y-82160000D01*
X110855000Y-84160000D02*
X110855000Y-85700000D01*
X108855000Y-82160000D02*
X110855000Y-84160000D01*
X107829990Y-80864990D02*
X108855000Y-81890000D01*
X89084990Y-82340010D02*
X90560010Y-80864990D01*
X79823600Y-93008010D02*
X88703990Y-93008010D01*
X79627590Y-92812000D02*
X79823600Y-93008010D01*
X88703990Y-93008010D02*
X89084990Y-92627010D01*
X79611590Y-92812000D02*
X79627590Y-92812000D01*
X90560010Y-80864990D02*
X107829990Y-80864990D01*
X78740000Y-91940410D02*
X79611590Y-92812000D01*
X89084990Y-92627010D02*
X89084990Y-82340010D01*
X78740000Y-89750000D02*
X78740000Y-91940410D01*
%TO.N,Net-(R7-Pad1)*%
X108855000Y-89510000D02*
X108855000Y-89780000D01*
X110855000Y-91780000D02*
X110855000Y-93320000D01*
X108855000Y-89780000D02*
X110855000Y-91780000D01*
X108855000Y-89510000D02*
X108855000Y-87970000D01*
X108855000Y-87970000D02*
X109220000Y-87605000D01*
X109220000Y-87605000D02*
X112395000Y-87605000D01*
X112395000Y-87605000D02*
X113030000Y-86970000D01*
X113030000Y-82527498D02*
X113665000Y-81892498D01*
X113030000Y-86970000D02*
X113030000Y-82527498D01*
X113665000Y-81892498D02*
X113665000Y-81255000D01*
X113665000Y-81255000D02*
X112824980Y-80414980D01*
X112824980Y-80414980D02*
X90373609Y-80414981D01*
X90373609Y-80414981D02*
X88634980Y-82153610D01*
X79240000Y-91804000D02*
X79256000Y-91804000D01*
X79240000Y-91804000D02*
X79240000Y-89750000D01*
X79256000Y-91804000D02*
X80010000Y-92558000D01*
X88369960Y-92558000D02*
X88634980Y-92292980D01*
X80010000Y-92558000D02*
X88369960Y-92558000D01*
X88634980Y-82153610D02*
X88634980Y-92292980D01*
%TO.N,Net-(R10-Pad1)*%
X79740000Y-89750000D02*
X79740000Y-91145000D01*
X79740000Y-91145000D02*
X83185000Y-91145000D01*
X83185000Y-91145000D02*
X85725000Y-91145000D01*
%TO.N,Net-(R11-Pad2)*%
X79240000Y-85460000D02*
X79240000Y-83295000D01*
X79240000Y-83295000D02*
X80010000Y-82525000D01*
X82280000Y-82525000D02*
X83185000Y-83430000D01*
X80010000Y-82525000D02*
X82280000Y-82525000D01*
X83185000Y-83430000D02*
X85725000Y-83430000D01*
%TD*%
M02*
